<mxfile modified="2023-01-18T12:28:02.706Z" host="app.diagrams.net" agent="5.0 (Macintosh; Intel Mac OS X 10_15_7) AppleWebKit/537.36 (KHTML, like Gecko) Chrome/108.0.0.0 Safari/537.36" etag="2xhQwoBm7gO9GoJ7-rrX" version="20.8.5" type="github">
  <diagram id="f106602c-feb2-e66a-4537-3a34d633f6aa" name="Page-1">
    <mxGraphModel dx="1434" dy="859" grid="1" gridSize="10" guides="1" tooltips="1" connect="1" arrows="1" fold="1" page="1" pageScale="1" pageWidth="1169" pageHeight="827" background="none" math="0" shadow="0">
      <root>
        <mxCell id="0" />
        <mxCell id="1" parent="0" />
        <mxCell id="818" value="Architecture: Backup and Archive &amp;gt; API Hosting" style="fillColor=#4DA1F5;strokeColor=none;shadow=1;gradientColor=none;fontSize=14;align=left;spacingLeft=50;fontColor=#ffffff;html=1;" parent="1" vertex="1">
          <mxGeometry x="260" y="40" width="650" height="40" as="geometry" />
        </mxCell>
        <mxCell id="987" value="" style="strokeColor=#dddddd;fillColor=#ffffff;shadow=1;strokeWidth=1;rounded=1;absoluteArcSize=1;arcSize=2;labelPosition=center;verticalLabelPosition=middle;align=center;verticalAlign=bottom;spacingLeft=0;fontColor=#999999;fontSize=12;whiteSpace=wrap;spacingBottom=2;html=1;" parent="1" vertex="1">
          <mxGeometry x="180" y="410" width="110" height="120" as="geometry" />
        </mxCell>
        <mxCell id="988" value="" style="dashed=0;connectable=0;html=1;fillColor=#757575;strokeColor=none;shape=mxgraph.gcp2.laptop;part=1;" parent="987" vertex="1">
          <mxGeometry x="0.5" width="50" height="33" relative="1" as="geometry">
            <mxPoint x="-25" y="18.5" as="offset" />
          </mxGeometry>
        </mxCell>
        <mxCell id="1000" style="edgeStyle=orthogonalEdgeStyle;rounded=0;elbow=vertical;html=1;labelBackgroundColor=none;startFill=1;startSize=4;endArrow=blockThin;endFill=1;endSize=4;jettySize=auto;orthogonalLoop=1;strokeColor=#4284F3;strokeWidth=2;fontSize=12;fontColor=#000000;align=left;dashed=0;" parent="1" source="989" target="993" edge="1">
          <mxGeometry relative="1" as="geometry" />
        </mxCell>
        <mxCell id="989" value="&lt;h3&gt;dgf&lt;/h3&gt;" style="strokeColor=#dddddd;fillColor=#ffffff;shadow=1;strokeWidth=1;rounded=1;absoluteArcSize=1;arcSize=2;fontSize=11;fontColor=#9E9E9E;align=center;html=1;" parent="1" vertex="1">
          <mxGeometry x="360" y="340" width="230" height="270" as="geometry" />
        </mxCell>
        <mxCell id="JGLgv0be3YkB1Xcw8cLK-1006" style="edgeStyle=orthogonalEdgeStyle;rounded=0;orthogonalLoop=1;jettySize=auto;html=1;exitX=0.5;exitY=1;exitDx=0;exitDy=0;" edge="1" parent="1" source="993">
          <mxGeometry relative="1" as="geometry">
            <mxPoint x="860" y="650" as="targetPoint" />
          </mxGeometry>
        </mxCell>
        <mxCell id="993" value="&lt;br&gt;&lt;br&gt;&lt;br&gt;&lt;img alt=&quot;&quot; src=&quot;data:image/png;base64,iVBORw0KGgoAAAANSUhEUgAAAKsAAACjCAYAAAD1u+50AAAAAXNSR0IArs4c6QAAAERlWElmTU0AKgAAAAgAAYdpAAQAAAABAAAAGgAAAAAAA6ABAAMAAAABAAEAAKACAAQAAAABAAAAq6ADAAQAAAABAAAAowAAAABVxndDAAA86ElEQVR4Ae2dd5Qcx3Xu787M5oycCCIxgwnMBEmBoGgGmaQYLYoiLVmyjmRbkpX+sGjpKYvv2TrHR09HkhWscGxZyU9UYJKYg5gDCGZCIHLGAgtsTvO+X/XcQWMwG7DcBZbYvnN6urty3/rq1q1b1dUlfX19WROVlJRwilFwjt0XXhaGL/Qf6n1/+Qw1/Tcbf6jlTMIdSA5ks1G9+pm8UweyAEleCQfeDAcyg0Xus758kD3I3nOV99znwiVeTEK6UzxszDvunFwnHIAD3uMjYYuCFYCmbF8UOWxTeQAXgtZDWD4EwrtYWgNXxb55Dxw+8R0PHCjpzfbuI++ygtqWbVtswsQJVlZSZu3d7ZYpLbVstk9Hr0nPFRp7raqszto7mq0sk7FUKm3ZVCSHgWyvIJoxuQn0fcoiU1JuGXJyHObPDvBC4A/G/n2KXRDBMyhwHuS2u7vbent7raKiIoTs6uqyzs5Oq62tHSRm4j0aHIjrrPuAFaBC6zett+adzeGaipoyZYoAW2ZlgmCvdVmH7bbb/vBbmzl9uk2ePNmqq6pD2D5hBLmcLZFEFdCrK2usKlVtpVZuaXnmIeQXJWMLrOEhcn80yp6entA4Uyk1vtAo97dRxVNMrveXA0MCa1qgXL1hla3ZsCZIlh1NO2z6jOk2e84cq59YbS22zf75/9xsNZXVNm3aVEunXaNQZWZTNnXiTPnV2VHzjrWjJx8lgJdYOpuxUvkFnObB6hLSHYb6OB6vv/BDTw9QZmUU6VVvgY7EPRIWRpWqR0mn0+EgTJ96F+4Bb0IHjgPURb+StaOrQ918lXVKhm7f3mQPPPiAtbW2WnPrLuur7rZZp0y1X93xi1BaJO/O5kgKp/okUQXKVFfa6ioabdFxp9rFSy61KVXTpBQIrPovkeTlP9JsHVR+HioDRg6s5Nis8r/xxhv2/PPPhzNgLS8vt6qqqnA+66yz1Cin2YwZM6TWCLCZ9FALmoQbAQ4UBWufZCAkWZM794RzhVXZhh3r7f4H77OnVz5tLRN22Ib29UFXpWLT6ZykkeTM9GasKltl6S5prb1lNrl2iv3N9e+3mQ0zgjpQIWUiAmpcOu0vWEOxculwHU/L/QY+ezf/6quv2g9+8ANramoydFSAi4QFrDDJ9ddjjz3WLrzwQjv++OODxM2oN9ndstsaGhoGzmgEfDs6OvLlaG9vt8rKylA2Hy2PQBZjPol9JGt/YEUmdvZ1WmtHq63eucpu+dVXrbOy07p7ou4SpkVdY0pdfcaq+yqtVKBN9ZRaSXfKTj5mkd102XvDoKvGatQYugUvAOYgO/BgpXZuvfVW++///u8AUsA7e/ZsO/30023+/Pm2bNkye/HFF23FihXW2NgYno+GWVNTY7t377ZW9TSVFZV20cUX2Qc/+MFRr2waEpL/ySeftCuuuCJIeRoTZSorQwAc2uSKZr9PSZfdJwtAR19HkDYNVXWWqZqv0X2ltYl5WQCZ0sAJsOpXooFVOpu2nhJJ5nRfGI6l5f/o0w/b2849T9J1lqBapfwApx/9Zj9qHkiqhx9+2O644w5DUlHpRx11lL3rXe8KZwC5aNEie+WVV+wLX/hCPgyWAvRYgEPjrKissPr6+lErZzzh//qv/7K77rorWCueeeYZ+8xnPhNUE6TseKB9wArk3CIAA7gvLUlbWbpECkKvdfd1W1dKV51ZS6nSUhp0pHsjsJZkFBdBySBFJzlbNtOjwYsGV7Vl9rt7fmfXXnGtYcNqsDqlXJi9S1lyHioRh9wKddiBJTVge+KJJ2zHjh0BdFR4dXW1nXDCCUFKAWAa4EknnWRLly61+++73zq7OgNocT/nnHNswgSZ9iTRFixYMNTCDjvc+vXrbdeuXaFR0UjWrVtnmzZtCmV4q4M16KPi6WAkeO0LkD5BtCRX+Z4QZ0BYmiqzSoGjLF1pPQJvqa57O7pCd2gCdXNbm2VqKwJTBVNDwPaWdNm21p3WvanPKp+63S4982LF6bQpFZOUT5lG4Z3B4pDJyBYr8xj2gh5Jc+y6pSlyyFqPJFqvBjYRpayyrDxcRjDFmgtF/9ETDQxeJCa6KqBFWmKWovvnTLcKAFAL8Gdg1dMb6e64w4szzjjDlixZYi0tLUEt8DNxATqDTsK51QBbLTouAzPSxZ2wEJK6P6IHoAxYIOrq6ox70qWRHHnkkcGduOjZ5Em6hC9MkwbW29Mb8icN9HEn0qN8EM/PgRvWj/hAEjcn0vBGQn74kSbX5EX+PCfP6HmRP3wkrI8D8E9h5tSYh3gDUaFoC2EBMFK0kFJBbMq1RBpsSnbTXlkMFLa6rsEOO+wwPanZaxvXWnNHi1RRqQ+aJAA4SNhMZdra+tpt+coXrLwsY3+16BrbpR8PVJeqs2ylGGbtsj20KWcahipgd7Nt2bzFduzaaVWVVWJOdaiQ6gqdU/VWkYkM95ST5sUPEkRy1oZwW/SvTY2KCoJx/TGJisd/6tSpAdDxhFATIKQxxD0gpWI4SNPT9YrkDDmAAUWcqDjsumVqsEhxwnEACoC6ePHiIFFXrVpll112WSiTAwF/4qc1OdOf/loidQx+Uw4vi+fvwMOdcpOWg548iOdE4yYMz8szkN/OnTtDeBoMBDAhLx/XAZDqZXFzkBI/zifCQe4W3UX/e3Mr7pO7loUx9LD+cBSZllAuKbi7TYWpKLfZk2fZScecYLMWHG7f/NH3NaNVZl2yWYI5wpdISlZp0kBi3No1KFm2fJn1tXXbOWcstsbSSbame61t3brVmrZut9Xr1tq2bdvEBEkCMahLAzgefHvTdqsor7Ka+jqrLa+z9177PpupH42qSzK+3CpCw6ChhTxV7kjCFm+tSCKY7VK1yKMHJ6ShP3s8DJKUyqSiYDxM9wqnMlzSEodGgSSJVwBxARaEfZf4SCPKs237ttAokaYuISnD/Hnzw0AOYJIXaRAeP8rhIKU8qDdxwgRHgwJ05NUf0ViIS5nRxSkzUtTT5p74ngbheVYaFW7+3HGJTP3RUAhD/ps3b44sKKog6qsYf4uVr/9SFwudc6P6y1OVGuWn1UoqbUrdNDv7iMW2uXebnbVosf3897+yykYNogioGSokHvwBPD0q+I7uJnvwuYfC0QeoCSZgU+huVUCnGDBxYkMI26tug1mxTG3GutLdtqur2dLtGfvCN/6XXXLupbbopFNsatkUwVWVH3RgpCrtJNK8c1MQIY/4HyN5KgTmOyDi/vFrr5i42zHHHBMqEKvA/fffb//+7/8eKheAYQZzyUvlMRj69re/Hbpq7LQf+chHbPny5fbLX/4yJHnttdfa2972NvvpT39qDz30UL5r/4u/+Au7+uqrIzVEPLnttttCHMAI+MmTssXL/+ijj4Z0NqzfEC+uzZ031/7+7//e5s6dG7r3vTx1A/B//OMf2x//+McgHLDyAMRzzz3X3v3ud0c9p8I5sL70pS+FZ5iuGUwsE/Dg9ddfDxYSnuPxxx+3733ve0EIXXTRRfae97wnlItBLaClkS1dutQuv/xymzlz5l4SuLBsft8vWINEJVROMPXlpkW5xaB/5cVX2mPPPGFT1SVfdN4FkmvV1ii94/gjTrHfpO4Q+Hp0dAXpKlGMkJWxSiTEAiOVN0hFnKTJCNPMDgliZTK4K1Bz3+4Qtk8WBUjzSyEt0gGUFekqu/XB/2ertq6yC865wGbWHy6VpEo+KAFlodi02v4IJjNFnCnNGCoBgxeYTeUguagUKgsgoN8ihRvqG0JXhtXALQB0ewAHcAJcpp7j4EFNIJ1CIj8aC2VYs2aN3XzzzaErBYhITSYeGPn/+c9/to997GN2+OGHhwolLSQVks4luaf99a9/PZjbeJ72jnZ3DmfMb6Rz6aWXhgZAOSHKgaTD4sG19xZI4u6ubnvsscfsT3/6k73vfe+zSy65JCobPZ7ATT4M9AAm5jQa/qmnnhr4B7/wxwbNZAvgXr16degxiAt/H3zwQVu7dq194AMfsKOPPnqvnicUruCvX7AWhNvrFgvBCXNPsjPmnikA7tY0mBR3ASQtQNWWNeiot7bs9iBViahyaa1AbsZHoBcug7TMSgcOi1/wF672LEeUNNaDI1GDIqE4PJw3GHThuppa69jRYc+teI5Atvjk82zhjOMF1wqVgiFZpJeRTjHCnrrgiAW24vUVIW1a+2uvvRYkAeADDIAOlQQmu3Sli1+yZEmxJAd0I32egYNrBzmgWiUd1CsW/7bWtjCwQbqtXLkyAAGwOjHl689Ft4ql4Oc//7k9++yzoRum3DS4OAFyQPLAAw+ERnfpOy4NYXi+L37xi6HhEJ78HUzc87xIQXoBGh6TIgy8fJBGg2OgyvPMmjUrmPuIR0OiHKiMxKdB4AZvaYgQPMUdqQxYB6P9AKtLKQZN6v7136FfrSRqrwZFSLsw9w9oU5JvQhqSMpUDC5ITyqqiUnJHbDKQKhGzo4EbD0BxdEaKK0ikfSpfVQ6rveSQp86STiurz1hHc5ste+VZQbTKZtRNtwk1DYoagTsfuMjFvHnz7Pzzz9dU8nbbsGFDAAuqwa9//Wu7+OKLbeHChcH9kUceCdINiwB69XV/dZ2deeaZebCQNMBxIHJ2cjcA5eDy8K7nAlLSZYC6dOnSUKGYpO68887QYPBHaqEOkIbnxRmgQEwUcKByAAxMaUsKGhSAYBAE+FhNR1joJz/5SdC5SQtpyrMhHckXsP3sZz+LJG5nV5D0TJYw4CwkunncmeXz56UsbZ1toTci7fe+971hIgNJi7pBjwKhunzoQx8qTHKf+/0AazwunbIGFXLC0NTeJelVGXW6vbIQ9PaKiZmo9cRjFV6nQr0CWsI6iHUZrA6ANpLAIZ5AkO6VdBKQS+Tf1tRqDbWTZIkQYHd22gtvLLfDZs62qoXVYaq3JhON0gvz9Hsq++yzz7adO3baH+/+Y5hqpUtD56S1w3gkLd0UFTxx4kS76cab7O1vf3sApqcz1LODDABzzdQuEgopi/ShiwYIEEBBJaHrpuIpV2EjIBwAI/6qnGQGXAD1ox/9aF7HJBw0Z86c0DAxd02aNCkM7p56+qnwfKSD1KNBoCej4pAfjZdG+uUvf9laWltCo0WKwht6HsDIGbUInRs+wT8Id8pG+ZHU//AP/2BLz18a/Pw5v/Od74RnLVRnQqAif3mwDgYtBkkRobHK/in5FeAphleWRsDIZruttFwMLENfivQ0pCuUQlqKGEgBtiBB+Veyad1Ha2UJERGjR7TTtKQq51wyArLc+qSz9tZYqrnUWtItVlFXaVtbt9qfXv+THXsc8/aVagCkq+A5cESp7vlH74O577r+XXbKqafYj370o9DSkbSABaBQWXS/AJRBxEBEPhxUjucZ3MQfzoWEzgwRfuHxC83vcUMKLTxuYQAswEa/BBhOngddPfo0gxbKTFcP4IIZ0QPnzscdd9xeLjQUpDFqAKAiLYBKfhCSHz2cWTzMZMz0wQ+moGnklAFg0tCYHEE3JS58JW3Ayj1pwMMTTzwxWD1wp1GhhvFcWB7C8yiOAJXP33nm5aFMebByM1QCarSfqJtGAuLChEHanln+hLW0yWxSE7WwYmmiczqhh0aVKmDR9wcpS/owbQ/AI2kb5QlYWXOAQlKp9bI7dm0X8Epty67NtmzFMjvryMXKnind/suAPhj0JzGdbphKmDt3rn3zm98MYIGhkEsv9Ks443DfHyIuz0nFcI20gbj2CixMLw5QrzzCBH4VaQBz5swxjuEQz45ERRclfTerUT66dsDqFAZ5ajzwhOti5HovfHReFgu3P27DAuueDDR7lYoKu6t7p72y9mX702OPqEIYuVM5VAxAFuzQOSFJzABQYdEHUEENEK5gUqQacK2gOYGEkKW16hTUWUDcIl2opq7ejjz6SFu1dmUYiTfv2GXPLX/GTjv6VMGecmkRjZhdjJAKDExYyHK/9DmkAxLER/mAComD9EVaOLg8rXi6hKPsQULozDX+lJnBkN/H4wIKZnMoB42msEKjniXiCfE8DdIln2LEIKdwYFUs3FDcPH/C9pffQOnwfDQ2no2eYiRo2GAFgozeMclrPb098eLjdsd9t9mOjqZQwZ2hI46KGIG2eHGFadVEcb+BXFu6dtvEqil26omn2OT6ifaIzCt9mgFbtfYN27R9o02fFJlmSMMrOp4e3Rz6F6PjLVu2BIZiD0XnIzySBlMUkwfcuy7mabjph3sAxAFo/Tq4q5Wxvhe3eHyuAQCHg9XT9TNxIPKOn/0ad/cLAfRHWTmGAw4GPcQlXwAG0UjpgQBeIXnelD/e6zBLBdG4/bldf3VpDZ/iB+GGPd1aWDDuC/EETJGITI/+9r5b7akXnrCm1u1WWlGqrqHX2nu1fK6+2pqkA9La6a7bNYWoKNKHZFmV9EXqYrqCGmobpb80WW1jvbVL/wozHkFfDd6WVtjtmtmZ1DjBtuzYpvRqrUZrEOY0zrUZjTPtzy++Yat3r7aKiRV257132AnXHR+YRWwY65UfpRbphXT9MA3gofNhqEeHQ8o6ERcJwRlweSURBz1s8dmahdPyQXQw4jPKxl5JBREP4GzcuDEMqEgTSY1+Sr7ezRdKVcJRXg7yQ1csJBobJiD0QcqLXRPAYepiAEVcygABHABFOkhf4gIy4lI+Bns8N40WfRf/0MXnJD+9D909cVx6O094DsI6OZ/hCeHhhw+8HMi4+0F8ntHjeTrFzntyKebbjxvwYjmLVrfa3U/dZU+/Lj01KyN3pkNLB5ki1OLrsurQQmFYWlOWDFx40Ja2Vquv0TReH4yM5DPZNK3bKbe0VdZUW2e7lt9prQAjfydmsmpkWy3V9O4UvUYTLAKdLZLpcpcBbcHsBbZDppnOnjbb1LTRNmxeb7VTjgpMgLGFzKA8MAlpggSlbFxToYAHJhKHMA5SryDKRAW9/PLLYYTM4AXm0ygBzX/+53+G2SIkEuBZpdG6gw6rAkR43KDCssXdPEwIGPujLP4aDiN8rBYA74c//GEAKQtt3DzFIOe+++4LvQh2UtYYkC7v1fHcPB8N7Be/+IW9853vNJ4HwJLH1772tZA2fEHisvAcPxoAZ3gVLyNpQfjhzpmDtPwNi1B2yo9bTgAQthgfYo88vAEWCWBrXb72BXv4yYdtS+tmS1VLEgh/KS0AqK2uswUnHynpKmX9+ZfCIKWxsS6A9uMf/oxstNUCu+71H6eeTh5KKsXyR+2ux35jfaVYHKLukDmF6vIK2QqblA4jSi326O6yV15+xc455m12+sln2ouvvqRFNE3WrkULzy57zmafI1NWP/oSwKKyAM3UKVPDjA/SA7DBQNf9YCL3fnjFMPrdvGlzmEo97bTTbM6cOcEuy2CNaVFUDAAPYLDjUqlIQIBCnvhxhrguJBqDNxjOfhDH41G5pZlS45UbegnypoegsXB4w6Bh4gc4nnrqKWN696//+q+DqWzJkiV2++23ByAy1YvZDsnMBACzZzQ2yo6kpCdhySS8cKD5GTfKwz3k/IqfaVwqfVE/gExvWgjY+P2wJCuF2daz3e6+/wHbrRkYQFPVW2GHTZtt5554rp153OIwvFnV9oZtX7PNVq1fLam1O4Cjq1dL7tKzZMRvUEvxxSfqqnq6tFClUo9SahsmrZNa0GDb2zYJqrILCKnnnn2elKgSVcpz1itF989rVlnjnBm2/IWX7Jg5C21G7QybOXm6dWzbJR2r09a8sco2zNsQZlWo3MBIqSfOEEB31VVXhUrEKM09leJTsA4OZ7aDlkEThBQmPJVLpaIGvPRS1DCROkhTgMSCDhoMbkcccYQtXbo0xKc8XhF+Dh65P/fn7KCNuxEsNBy1ZdYpYOdkIgEphn2YHg2zFoREBLiUlQGkN2Ck6jXXXBOAjgqBOvDCCy8EaYu1g3h04ZzR5ZnHp5HSE3mZMF3FyxVvSHF3v6Y8fu3nkFYBUPErpGGBlerqkbRvbdcSu54ym6CXAc844RR722nn2szKWeqU621XtsNmqwCTy6bajsrmwKTOti5b8cwKO+a04yVdqwRLXu1GSqvLT6vrlUuztOASLSLAHsu8LHrt1MapNrFisp1/9Pk2S+k/8vgTtrs+a+vUECqn1dkba96wzJwSO/7ohbb6jtdtSqbRtm7YEmZsMED7g4duU0AHZFQqkvS8884LlQi4mDfHhkhl0i3GCcmEoZ7ZJK7pWgEu6dBFEhephlSlMpEwPVp4joQE8HSt119/fTC+AzLAwFJACHUhAC+WIWV2nROpRpmR+i5ZAQ3kqgD543b//fcHKwdl8eWLPCf5sV6XxgKwKTdEPhj9P//5zwfpiYWEsgBqGiQ9zBz1GjfeeGN+5oqyMFlA2JpaKWECvfPYzzw/4SgHPQrpkS6DNohnA6Twh7J4PPzi19w7DQusRI7MTuq+ZNBPSf+cPW2uTaucKQiq4AJdvV576ZNKMKlmsj3XvMxqGmWob++2TWs327Zjm+ywar3TpHQoAGtV9BzBLIob069p3pKVJGW6trSHFxC16Fkpz5k0z3bP77KVD/xRC7D1Snh7qz365KM2S6+JnyCwprr7bPXLK21N04YAOKQFwEJCwASYiDRgMHH33XcHScL0JiuSkFCoBhCro+LE3DXTkHSR3//+90NaMJsKQfIAFBbBEI8JBaY28aMyyJNJBbcgAE6mc0kLouJ9vtzznDt3bjDw02hImziUjzcUAB9ApMKpfJ6PgzzQVZkkiK9nIDwDJ7p8no80C2eNvvKVrwSdFvUFngEwwiFRmZZ2sAF6DniBtKYczGA5OdCY5cIUCFh9xoowNC4IXjDZArEM08nj+338vCdU3HUI19hAkX5+JgqWTY4AOJ1Z13rkvGPsqZeftp5uHrLb1mrzjM1Nm2xm9VyFiAjzFViNC35e5y7pVWVLEWYSYEINA5MSmzflCEm+BluxcZOt2rRaA7YWW7Ox3dboenbtNDv1+FNt/uR5ljmjzKZNnK6uOFroC1gBDpXOyBcjt3ebgOzkk08OgKbyg26lCQ4fvVJK4lHBzOjAaHQ5QAogOSBARyXxagyEu3eLNBDSRcqSDhLdCYlTCFbAzGAmTlQ64HGirF1Swcq1EJ6GA1GGd7zjHUFaeblQQQBbeDbF8Q1JPB0/n7P4nCB1uXeriKeL9KPRUX7cWIFFjwJPC4FPfMoOiInjPIgDkUaDCuKqEjyI+5NGIUVPWOg6yD2gAqRsB8SUJrR2w3rb1tYkC4FGgQJVm7pzIHjE4UfagllHWE+bdEK9EsMIf/229cEKSzgJ1XwhWdjiK69SAmipVIyMXuXmde4pDQKeJDgLZo6rWWhXXHS5TW6Ywps0VtFQaW+sW2nbe7VAW78jpx2lnWJmWG1NXQAUUoeKghkwhSk+dDOYjtQCAHR3XjFUMrotEskPgIlEcdAj1Xh7ARAgIalE8oDILwBZOqsDlskB7/oIQ1gaAAd5FJJbKUjXyQHt+aAPUx7KjYrgBHh4Hs4ceaAywFGc+MJoj+Npkh88QrICNNy5B5ThmaUi0e2jAnEm/Xjenh5nwuPP2W2s7k8ceARfPD75DERDBisA9YNIE8ob7Nh5R+m167R1a0Cz7IXltuzF5YKq2Q5BVUumBcgeQafKLjr/UqvRssEKddtaWm2bd25WCL1mkJPBTJsyaAKoMnhZyy4p8JpOnVo/wxrKGu26y/7KZtbOssqSaum6FXoZptUWNpxgN777Jps5d4Zt2rnBNuoo0UuNWvullxr15oDy4tlhAIdXEEyna2JQhLQAKHPmzInCaCCGERxJ5ABCIiIZADrAwESEX011TXj1BFAwHYl/XBKHOAI8eeNHvl4ZnAlLJYaKJH0GGDpw56ARAQZvQGJW/hn8WXBzf0AxEBGHvJzIw/OMn/H3csafAXdv7F5+zhyAbjAKzyVewk8O9HUaAnnAVydP0+/j5yGDNR5JLOWJ7O1LzrcF8+YH2yrvSt15z9322PKn5ZsWJCUxBD69AGGH1R5mFyxeao11jZYtLbF1W9bZ9hatOtIPcDE9CyPCK9+KR/fS26F5MUnjOTO1JK2e3VzKrFybu6X16jfSdZfW0VZrAc2EyROsqrHCmttlstJEBGnSgJD8xcglBF05Ug/goaeRP+ClQl16emWRjks4bKuA3d90Pe3U04LkKpbXWHbjeccSDQRSL+ewwEqkjF4anCBp+Y6LLtZrCTO0VE8r5qu0uFYHo3qkpeRWkMZs5nbWyWdb665Wa9ec/oatG/Ua8Qb5Rxtd9HZr1CwdkZmvVvnv3L5TYNUIdneXzZ85T2/Bai8tpYFqwOAro8FXtksDC0ntdJnWdWpPg+27tmmwpRcQJc/TJeiQWmaj+vCjJ9edAlAGBczeII3o6ljp7msrAWwxIhxhsFPSRUMMMs4595xiwQP4BwME/oVH0cRGybEw74HuR6II3mvsJdULeDBQPsMCK62gR3thsVBkhrYEevdVN9jik862Ky+90k6af5K16JUUXiwBpIKLDkz7JTKQt6rbEuAEvV0CJAuvIaQb0prdN7vaZZjfpfWVAiKWhMOnz1PHrwYgkEZLC0MUWQIqlIqmaUvrraak1jp3CPqtUiRQG6XDAVKEqwtY9E0AS4UgOZGsSFFAiF2S2RtMUxDPV0gY9nm3CCsCpqS5c6N3mlgd3x/AC9NI7t8cB/LWgDhqvbLyZynTkamKihTAuJcU7OjeJTlWYpNsml1+5hWhkrtl/Eeu9uodLFZXdUtidmoh9otrXpQUFIh60zahUiaPbJm1bN5hpfV91rSjWRMLMilJr9q1qcl6mvSOfXup1VbJgJ2ptR1t8mcKVoCFgHhTxy7rLuu22pZ6q9xaY3VZvVO/QWllZOOsxIoQhU1JJ5JGKJ0Ray47HaRt5uyZdt3110oSt9iWhzdbujRljz35mK2SvXbuvHkaUU+1umrp2NLFUEkwba2SHRY9l3umLBnNM/JHPUBd6I9oHIXkbs7fuL/7xd1G6zqeV7GyxPONh427D/Wa+PE8+kuvP3fyyYOVEZkn5vqZ33N2sHrh0rJbpTQoSgt0vKaSVqWFkaTgELlLB9WAoQsjakn0em9PpxZDqBueNXOWpGajNirWW1uaZssIpB2aCUMNYJlflRZPd5f22LR6gUYLVlhd2KW4wA+gsvilXAtmTACvkf11WrkWMpO/3tRobdVrw2k9S26ATRz01ym5VVj+TFOnTrObbrop2B3vuON2AS5lGwXKdevXhTJV6bVvBi9IfTfRYOfEzMX0JiN+VApoIAaHAMnfiHCgRJUX+rzhgJUS8K5VAHMOrOwRAKQY22Om6hZYOZ59dZk9v0LmoqpSO+PE021OhWa6UppAkMQDsORfU6P3udQAGI3TPQOUMi1c6ZZOC3AAFNKao3n3rrDCq7dXS9ja9P6/ptQmakUWppDerj1z+wA1Auve7w2hFmQkEdGf2NLz4Ycf0uqoTUF6btq0UYPBCUFdwISDaYo5fVQHnyzwBt0fUPtzH5FaG6eJ5MEaf36XPvlzgRrA5hMlUg5ZPIyOWAysCpCXgt2ShB1hOCWDeL12MunJWnWnzB2dSkNpBfONwNgtcDIwS+s6mFPUdQBU2TryxdO4TpI1MgelwlmmEOLKfFanTePY/xVq7UGnjqQe0pUBoS8Ex517SqjYWrrYriykKkhSojQ4YVoB/C5B3R0dNZhgBPT+KAFrf5wZvntRsMaTc8AWc/MK8TBhkUfJHslKHAlK7SioiwAO5K2wpx8rAfZAkJAR+dDG/bgP+wmgiuhXEhYNyFGNARIEw5lU48SAzokrtbdAXua4Px77lmZP/Chm8n+wOTAssA5caHRUgYqBmAiwBiBp+hTlID88dyw4+AgmKgbWyCf6j6Qh1yG1cI589gZr5Bb/39s/AWucN2+N6/wAa6SLG4FUuGUEL6AyQgtTs6ARJ7AjoEaQHnruDjmw7tdDib2/+QwlzSTMgeXA/tT3fpaMpHXkzE17RRZgCwRq3hsQutDNOxZcxIFKY+gvrYJoye1bnAODqgHDez7kmMsyB62cvI8n0QGaicck2L7EoChO/YUeWihPKdFZnRNj9zxKakAcKLnroYjMHJ+IMTQIjl3GJiUbeQ6MElhHvqD9pxhvGHtC9Qf2PSGSq7caB4rX9FvtKZLyjgsOjJLOOhZ4F1eQh1OewYZ5w0kzifNmOJBI1jfDvSTuAeVAAtYDyu4kszfDgQSsb4Z7SdwDyoFDGKxuKxv8zKYY0VREPOy+9cAaiMGOfWMVd/FVW6THazKQr7EoHiNxPQRMV8OrRJYh+gt07B64ZvWavRJi1ZcTyxUdpO7W39kXyrh/4b27s2qLFV28kswrNrxmTT6FK7w8fHJm1nMcN2eW+n3iE58IG0LE37AEGHGQhUXlLJPMLc4ZCDiAME5x0MfdWdDNJhG8wMj1nDlz7O/+7u/Cdke4xfOPxxvP13tzdpxx4pZbbgmbOfDuvkvOouccUIv6FagGADp+sGyy2MFLi2zaxsHrM3w34Fvf+lZ4RSYBanEgjluw3nvvveFFQYAKOPYBVAyESEckJhs1+EGcYoezOSzOLpCy7udnJCjEWxK8FcFr3v59AA+TnPdwYNyC1Tey4GU/1133sOXAX7HbCvoq5fKNKw58KcZ2juMWrEhUBjSAdSg7iox2NfKKEOWgXAO9LTva5RjL6Y9bsDK4cvPRWJCs6MOoBbzImFgEijeZcWu6gh3oqdp6LOiM7A7N6Jxd7Xa3aGsiDYDiBJjiVHgf9+M6W7AinM3R2H+AhkE3X5qKXuP2eLiRJtI+oeIcGLeS1UfcDg6ASvdLdzwa5N9UYCDlecbzYeCG+2CNIB5nvF2Pa8kar2wkKkBlY1u2B+rRK+Bx4BaCqPA+nhbX3hjcnX210EfZdTDYbQsktYdLzv1zIAFrjjd0/RAbWTCj9OUvfznnE51QGeI02ARB4eRAfJvKr371q+HDGfH0kuvBOZCANccjpClmI7YmZ4DjXTWgw84aBxtR4pthDM7m6FtU6KvYVJON3IbCsX3DJGDN8YRtLAGTG/rdfOTduXf7hff7sjRy8XDu7xYHNtH1LTPdLzkPjQMJWHN8YjTOgV7J11biaoDrmA5YorjZqz82k1acMEn5hyz80z5x1QK1gvTjbvH4yTW77yQUOOBqAItK+PiDby4MgFAJAKeDlghDBSugRcqGxiCVgo3gEhoeBxKw5vjGmlK6frayRG8tpAC2AmlZGGaw+7DAhQ+IidCF44O0IFXVMOJug6U33vyTZh6rcR9UxZxG7TIB5f6zNpGs+8+zEYsR14FdssbdRiyjQyShRLIeIhU5Hh4jkay5Wi6UaIWmp/EAhrH+jIlkHes1lJQvz4EErHlWJBdjnQMJWMd6DSXly3MgAWuOFT4ad84U3rt7cj54HEjAevB4n+S8nxxIwLqfDEuCHzwOJGA9eLxPct5PDiRg3U+GJcEPHgcSsB483ic57ycHErDuJ8OS4AePAwlYDx7vk5z3kwPjdm0Ac/9hD6u+6EvbhWsBCu/3k69DCl6YRyiTypVQcQ4kkrU4XxLXMciBBKxjsFKSIhXnQALW4nxJXMcgBxKwjsFKSYpUnAMJWIvzJXEdgxxIwDoGKyUpUnEOJGAtzpfEdQxyIAHrGKyUpEjFOZCAtThfEtcxyIEErGOwUg5kkdgfJtoj5kDmOry8ErAOj2/7xCrcj3WfAInDm+ZAAtY3zcIoAdYZ8AE23t2qra0Ne1kBYLZlnzRpUthOk20v+zv45oBv/sZOhgeCkKhskbxnm+SxLWPH7UKWkQYDGwTztRUA19TUZIsWLbIFCxbY3LlzA3h9v9f+8iUem7+xiyHnhPblQALWfXkyLBckJjtmsxvhDTfcEA5PCCAP9rkgpOnB+B6Xy9KUegR9yDf/lZnCFWH+LAfznIB1hLhPd490/OAHP2gXXHCBdbOnqzZz51MEPfqMULu+GKTViNYXWwEYl591+mDbNoXhYzG15TrvR7ni6RSLFssy7+1df1ouBV9ByocZaxcJWEeoRtBPyyvLA1BTUgc6BNbdnb32wKMvWmtPuXVl6q1LX4LpTGuH65RgLGCX5MbhKa1h7WNv1j59launN2w+nFYa6QHUgQhg2pxYqOOanbW7u7ssq/1fGxobrKOtXepEr3V1t1h1RaXC1IVvJpSW9cmt0yZNm27HLphgs2rUOITmDN9NcF5k5VAM4e5/kM4JWEeI8QywGCQF3VSgLCsrta9/47v2woom685Mss5SAQiwZgTWEgFVANOy75A7XS4DM77fyueMuEf/dd0VQMapJBvJUtxJo0RbvFdUllnr7marVL4pfVOro61DaZg2R9aHjNs6bduWLivPVFhpebfKlrLm1i47ctYku+WT77b6/PfplC5AHaOUgHWEKgY1gM8SAbIe6a6Pr9xqr23VbtoTDrNtOyThJCW7pQd0S6L2psT2rMCYA10ayPHpd/xcsvZGX+D24hV21SnFx0Katk7FlkTNZG2mPol09FHz7NVXX7Y3/rzKJtc32ulnLrStm7fZ88+ushLlf9lll/CpGbv1N3fa1q1bg9rRJdWj7C2AhLdAEb26RveMZHMJN5zBBUDjAxeAtVvCqamjz1r7KmzLtl2WKp8oHTQjoRXTLgW2PgAbHguJJimrNCyLtqoEskIUR44QrnHARnEFcElpacXWtLPJzr/wbLt06TTr6Gu1FStX2cRp02zJhceZvvRpzzy/Vl+J2WVXXDDLdirG728vk6TN2pbtzTa7oV55kZHSooxjVLomYKWOCojt2gGdj+CDxJMbgO6PkKxYAiB61T51ua2MqEinolwY1DtfgmxJSXdON9RHMXLJZSR1+TBGNl0iNSDqhlOoCnF0Ks3CDjqoESUSi9JNyxsqrHnXVnt17WR19cqzutbae9K2erPZqje22dY2mdaq6+1R3ZeqDWzftdtm1pQKm3t/Q5byj1VKwJqrGfRDQIrOiRkKcxPgQ8riB1AHAqt/OIOw7UqzvKwypNFQ12DN+lQRw5dUSsBKSzUgz2yZDlQBYc3BSmOQGgCRb1zCRxI4eEX+fVSdJGGqS4F19HbafXf8xp559G6rqKq2npZuW/lqs33nG8usU2lWlddYT1e7/d9v/MD6ulAdkMgRxdOmfeTakHuPmXMC1lxVIEUZUZeXl9v06dPDF7KRqEMFK8Z84kFdwlulBFZFVtKsp80Wn3Sidba3RKBKSfoiDXP6KuFTaiDeIHoloaEAVoEYcgkcbvSH7ukUgY7uu88qq+arq99hbbLZnrJolvTjDitJd2iioV3pNeiL32XW0rbF0qWN9uzyDUpCEl/dPrBV2+A/HNE192OLErDm6gOwAE7OfAz4n2/+5+hV7RxgBqs2N+rzucsUpiJZB0rTWWtu2mA3XPNemz4pjGuCjlrYnSNpgR8SLYJqBJs9kIzuC8sQ98evVsdGifXqSrPdahP1VTrktra73apKK61Fs7hVFejTZn/z0f9NlLcUJWDNVRdApStHovEFwMJvtQ5Wq8w+AVi+ft0kxO1obg0TANVSYKcJqHVKQB2/oSE6yN5sd1ug0oYizhQYQX29AMuZsdJMARVqlB8NBcCmGdDFKJRprIrUXDkTsOYY4VOi6KX+bdVgRpKEZPA0FELXJT5SVStZNJzKyrAvPViRYTRg1fSAwCo9QTprdhRH3f5ZzVCWWOFpjL06ClWLWJAxe5mANVc1ABLpCGixP954440BpKgFQwErQD3ssMOMz7MHrMownw6HRvpjtvrfWgVLwBqrL6QiFoHmnc2WKc2EayTRUMDKJzTnz58fWQyKdKd0+dHBf0LD4UAC1hzX4hKU2aSe7qjrl8EqrE0djLluTQDcg1EwgWGm2sdyOljMofsX6/6HHntshkx6qFy9ANaR+nZrmIgSGLMCPcDcI1WxjCaSdbhNIZGsDlbsjTlwDUU6Dpfh+xtvuGUJ0nt/Mxvj4RPJOgoVVGAVGoUcxmeSiWSN1XvostVtH3vsseG1lJjXkC6x075ZGq4kLcx3pNIpTPdg3idg7Yf7V77zyn58BncOY6fBgyUh9pMDCVhzDAuj59ikTq9W7e8vYVeNU0luSeCbGVINV0IeijprAtYcunzGx8H26quv+uWQz9WaW50zZ47CR0MBB9reYMUv1iqGnHoSMAFrDgNYApxeeukl+9znPue3Qz6fcMIJ9rnPRvGqqlhnoBcG9YYgasHeM6ujP671hlKs8FiC8c8f+UCD24jzQQ/Cxehz7SA81HCyHKluE9AzL8Dcezpn9OcN17FI8Tdtx2L5CsuUgLWAIwNJpIKg/d4GyQVYhVpAGx9wcV9stVS/iY2CB30IQPWDtsQx1ilRA0aphuKgjKSslgcKEdFLgsCFRc/7yorCjrjwfqSK62oJZ0oDWMmLa2jfkkXuB/M/AesocT8lFETATAVJWqGlBmVCBCpCVlO7ALVYN8yKrdEmt3O4NA2SVpmORYDGeZGANc6NUbzOS9pgzorg4a9ix7MtxCrgHmkClN5QXJKSB+DlfqyCNgErtTSCxM4sLh0j6amXDZU+4AiSLAe+tF5gib9LlS+CR847jDxa05RRA0HKhH3ZJatbiccqYBOw5kExMhdUPgOoAE6BgTereyWq6Hoj0EaLsQMEwzv/hfkGn5hj4X3Ma9iXkezkVR7K5GWL1odF+Y1FwI5bsDL//6UvfSlf3W4FcBNW4TkfsJ8LKr6xsTH3lqrZzpY226H9psorK0ybq5he2+cFVCGWC73qwhuqsTdcPdlUgWT1crn/SJw7VOvVtdp7S2YKGheAjQ7gOhqNYyRKHb0aNDIpvcVSOeaYY0a0xIC7q0vv74vAG9K0uqHOtm5faztazaboxUH01r4SXhksDeAIgQv+wHOcRgs6fVIFKHPoBZRhJGG135auI7kbL8XYuB63knWo7HcJO1h4NlVzouIbJ1bpHf1WK6+psjoBVbsJSZrKI9UtwGrPK20NRLhCKhxQFd4Xhh/OPftq95ao6rM9aljxUuTUA/njOtaAOy7B6gD0MxXu3a27+VqB+DQs4foj1ACnUOW8FdPTaZWZlH3nB7daeYt2+OuTY6pdOmKpdZXU6cx703tTVI49ss3L5aF8FB9ByV3379yrxlLW1yVtpENnAZbdYYIIj+T4ntz3L93RDj0uwQoAAGUhEGB23i1XY3pHdUh1EN+GnagLpprNm1hv25u22vLHnrFMr/a4ClJMOwVKqrWlanQWSGJ6a1j5RRn04jblcP01Xyb5OVjZNhOKNmYLl0P+A6jVXTvt2MOn2oIZVTZJGPWvGFB2ntjVjz1NMEr+YAJZO3Or1sYhDfbYg/n3xzKAJZllLart3VJh77nnqdAwSC+bGzwB1o50mfXQFcc1xLCIINIl9Y6NNhakarhnD1bhOocgAPpmwFqhbYXmafuWs088Vvu6VlhjWVpljkriIPVz4XMmYC3kyAG4HwyMg/kXFtGnTtExMQWV6YwmgJRqZt80cKcbJBXS0U1aus0TYV2yuXQDzgAnDpKQRi7WUCUNaThxTbrk0c1+XBr0ed4epvAcz7/Q70Ddj0s1YDSYywRqIKEnMFV6IWd2ImzQdkRODi5C+7X7cXZQ9XcmDPE8bi5XnAekQrC1dnVop0Nt6iHpXS6kDjWdATMZZc9xqwYMxtehSla2SC9Kbi91f0TuXoQsGx6Ro+fqoB0spXjuxAG8nHsF1ozKRvEKAT1YmgfaP5GsB5TjDgeHm98XKUQxFOYQRyyPOZx9CDD8R0kJqEpI3+MIYC1SijHllEjWfqpjqJK1n+gaAMVl2R5w7QnPkAbQOuzcx+9zaI1ZCzxEOAdrgIN+L59+bjxdvCkbAzcvo1aG5eCbj+xeeYeDf5FI1hGqA43X90pp77u9vHI3gMfBFgcSblAR0epOIXGPG4Ue/J/w8XyALHI5V46CxlUYdvD0Rz9EIllHn8cD5ODA3BtEUQRH5gDR85rrQGHifvF8Bks/HjaexsG7TiTrweO9ch4IEIPL5sj4NNwHGAysw0139OIlYB093o7xlAdqKGOz6G+9Er9JPg40cBrIb6jZxtcIDDVOEm5oHDhkwcoW6xAfpGCv/507d4YPXDAd6n679ckfrh1g+PHFFog4LPmLAzj6PqrWo4rYPDhOpA8xRcpEgH8Ti/Tdj3xI0/MnvOft15QXYgduiPCFeQWPcfh3yIL1xz/5cfjo77/927+F7df5AouvN+XjFldfdbVde+219sMf/XAvMPBpoe36JB9+f/mXf2lbtmwJgAU8v/vd72zJkiXhay58p3XSpElhAzcWcbe0tASAkXb4gIY+F/T666/bpz79Kbv++uttwoQJwX327Nm2+JzF9tOf/jQ0JPaFffDBB+3UU0+1K6+80q666iq78MIL7eKLL7ZbbrklfJPrYHzafUy2BUmOQ5J++9vfZgXQ7NSpU/PPJ2kXrgXArADFCCN7zTXX5P250IbC2bvuuiv4zZgxI/hJsmU/8IEPZPUllqx2Cgx+xBXQ8tfvec97spKSWe2YHeJ897vfzepbrsFfu2JnOYjDoRVa4Tx37twsZXr++eezAn/eTxI+lF3fNchK0mbVyEKa4/0PqXFI0urVqwNA9KpJduPGjeEZASL0y1/+Mg9WfW81AAxQcAAeSbSspFn2/e9/fwj/+9//PgAMsH7hC1/IvvzyyyHc2rVrs7/5zW9Cg5AkDmEB1q9//es8kEnjmWeeCX78Sdpm/+M//iOkP3HixJC3VI6sVIzsrbfempVkz0rKZqWihDyIk4AVLrBs7RCmU045JYDmJz/5SV7iAYybb745L+UA4COPPJJFegIQ6KyzzgrgBNTQDTfckNXXWLIf+9jHwr2+JhjOgB9p2tTUlL3vvvtCGmvWrMmqqw/pf+pTn8oDjXDxg3J8+MMfDungTlpSM0IjOvPMM/PxCOCNLAQex3+HrM6q7tYE1rCI+bnnnst/hA2d9I477sDbPv/5z4fzs88+a7W1tflvtj711FPhG64nnnhi8N+8eXPQdzdt2hTuGWgJYOErLujBbCJMXrhJ/TABNnyk+KMf/WhIJ0SK/fH1FwZz3/rWt4Ir1wzo4gcf1ICEzfASYrgZ53+HLFgZcV9yySWhou+5554ABNwYMAHOK664wq677rowyLn3nnsDDAAIfgymjjzySFuwYEFwP+OMM8KXA3/+85+HwRCDom3btuW/9Uo8trtk0PXkk0+GOB//+MfDfbHPEhGe72YBeg4sAO6GOwcEUAFyQhEHDlmwdvd05yXrsmXLArjaO9rtlVdeCcC44IIL7PDDDw9cePChB4NUBBhSCfKS0oHyt3/7t3ngnH/++XbZZZfZ9773vQBMNzE5KJcvXx6sD8cff3ywGgC4QsINiYyU5+ATmqSDmx/E8fwL44/X+0N2BgtzD6Yl6Z+m0bY9/fTTdvnllwfzE8A499xzA2g5P/TQQ7Zq1SqbN2+ePfzQwwE4gJluf9q0aQHU999/v8kiYC+++GIITxyAhkT87Gc/a5/8xCeDlETlQDJm0hFrCQOR/2233RakKOAElIBWA7bQUKSXhjOqBNcJFeGAGHbIEiPsf/zHfwyDlo985CPhORk8iQ1hsIPDF7/4xSwWge9///th9M2AC7PWa6+9ltU3XPODG9KC1M1nv/3tb2dlC9UqwJIw8MKcRT5YEvSVweD+s5/9LIRn8AR95StfyZu9MF0J5CEfTxdLxP/8z/8E90WLFoU4yd/eHDhk1QA9pmUyGbvooouCNLv77rtt/fr1huQTGMzf8z/ttNPCDNO9995rdOG8pcoEwhFHHBHO6KeQ65EY7z/0oQ/ZH/7wB1u3bl1IH0l4++23hwEXAy3yfuKJJ0I81AOkJcZ+JgJ+9atf2Te/+c0gvQXukC7+friEDZGTv704cMiC1UfcJ598cgDPypUrA1AZzDDw4gMXdMUMnqBHH300qAv4oy4wFRsn3CFG7Dt27AjgojtnlolGIZurkcfRRx8dVAOsAhBqAqDEHV336quvtre//e3Bj4ZBujQI0iAsB9cJ7cuBQxas/qhIyaVLlwZ98tOf/nRwPu+884JEQwKyPxX7XiElZY8N+qLsnMGU5XPymtEKgyAiowsTR7bVMNpnEAQYAT55YWHAbcWKFUGCMtoHgE6AnelYCCnq+imSu117YwFgpmaxXHijoJwJDbyg8i3NHyod0JSVluU/wAaAoNNPPz2c8Ydk9A/dMoMmpJyDG/BB//RP/2SoC48//ngAPVIXwJHev/7rvwbJzZw/5iv20GIgxsBKkwgmXXUvOymDOwDsakUciEh70uAT8qwxIA0PHwoy3v/ErEOepF+GQZXqOnv22WfnZ7MkDcNASypA3l9gC1OfkoB5vkiVyDJtyxQsA7B3vvOd2cWLF+enVAWqMPDyCEzDqssPgy81mjDo0sKU7E033ZSV9SGfF+VhECcLQ1aqSVa23eCnBpMl/L/8y7/kB4Ke9ng+IxUOeZKkCiAAcJ/85Cfzz8uiE3XDWS3hCyN4wMPcP4Q7QILuvPPOLItK8PcD4Kp7zy5cuDD72GOPhTQI66N/RvlM88qWG+JohiyfB4tWmGrFskCDYb0AjUDSNoQFrFgkWBwTTzPcjOO/cfEOluo3dNWsNfX9pAS6QKgCwV9+bMLGztVQKq1tK3I7AxIH9YDue8OGDUGXnDJlStBrURWID/WXPn4CdAiH3RZ7bkL7z4FxAdb+2OIgK+Yf9wPQrt+iQ+LHpy8BNO6YnRgoOdCLpUdDwELho34PQ1qetrsl5+IcSMBanC97uQIoByMDHyeA6+RAdckdbaqmKdPczixIZifAHW8A7p6cB+bA/wdKhLzvjU6u8AAAAABJRU5ErkJggg==&quot;&gt;&lt;br&gt;c" style="strokeColor=#dddddd;fillColor=#ffffff;shadow=1;strokeWidth=1;rounded=1;absoluteArcSize=1;arcSize=2;fontSize=11;fontColor=#9E9E9E;align=center;html=1;" parent="1" vertex="1">
          <mxGeometry x="730" y="315" width="280" height="320" as="geometry" />
        </mxCell>
        <mxCell id="995" value="" style="strokeColor=#dddddd;fillColor=#ffffff;shadow=1;strokeWidth=1;rounded=1;absoluteArcSize=1;arcSize=2;fontSize=11;fontColor=#9E9E9E;align=center;html=1;" parent="1" vertex="1">
          <mxGeometry x="720" y="700" width="170" height="70" as="geometry" />
        </mxCell>
        <mxCell id="996" value="&lt;font color=&quot;#000000&quot;&gt;API&lt;/font&gt;&lt;br&gt;Contrainer Engine&lt;hr&gt;&lt;font style=&quot;font-size: 11px&quot;&gt;Kubernetes Services&lt;/font&gt;" style="dashed=0;connectable=0;html=1;fillColor=#5184F3;strokeColor=none;shape=mxgraph.gcp2.hexIcon;prIcon=container_engine;part=1;labelPosition=right;verticalLabelPosition=middle;align=left;verticalAlign=top;spacingLeft=5;fontColor=#999999;fontSize=12;spacingTop=-8;" parent="995" vertex="1">
          <mxGeometry width="44" height="39" relative="1" as="geometry">
            <mxPoint x="5" y="7" as="offset" />
          </mxGeometry>
        </mxCell>
        <mxCell id="JGLgv0be3YkB1Xcw8cLK-1001" style="edgeStyle=orthogonalEdgeStyle;rounded=0;orthogonalLoop=1;jettySize=auto;html=1;exitX=1;exitY=1;exitDx=0;exitDy=0;entryX=1;entryY=0.908;entryDx=0;entryDy=0;entryPerimeter=0;" edge="1" parent="1" source="987" target="987">
          <mxGeometry relative="1" as="geometry" />
        </mxCell>
        <mxCell id="JGLgv0be3YkB1Xcw8cLK-1002" value="" style="shape=image;verticalLabelPosition=bottom;labelBackgroundColor=default;verticalAlign=top;aspect=fixed;imageAspect=0;image=data:image/png,iVBORw0KGgoAAAANSUhEUgAAAHgAAACfCAYAAAAyJR3oAAAAAXNSR0IArs4c6QAAAERlWElmTU0AKgAAAAgAAYdpAAQAAAABAAAAGgAAAAAAA6ABAAMAAAABAAEAAKACAAQAAAABAAAAeKADAAQAAAABAAAAnwAAAACSFk4hAABAAElEQVR4Ae19B5xV1Z3/9/U3703vMAzSpCtFERUsoNgT1EiMmgjGnmRjqinGz5pkk2w2GzcxcXdjV2yxYYsNSVDsRkQQBKQNdYbp7fXy/37PfXcYRnSZkYEZ/pzh8tq95557vudXz++cnyPNgl4uKdafSqUQS8bNnVwuN9xOFxz85OShBkRiUfi8PvO7/Z9++zwlBd15V3Gau1mf9dg6ksmkedW3brcbTqd113Q6CTgy16et7xwO167K+sk7R28C3Ll7BaI+x5FEMpHgB2tcCXiXy4Usj88Abo82gW+XngL9WQATViBhtdDhdCDN9iRTSTgcDgO0w8EBwLaq8C1HIVvBQdnfint/NNj0D7tLoCUQQ4u7DZF0CFVV67Bx4yb4svyYMH4CBmcPhgtu+ODlq9MchrwdHBCmCOqewW2uUkMyI4fDDGl3Clvjm7F+3UZU11Rj6NDDUJiXj6KcQvjZigD/PGyPAdcMT5vnWK3pD//vUwruTLFdHz7FDo0T3EY0Y1HtYtz28K2IRBoRjoXRlojCk/Dj2xdfh1ljToW7zYMh2ZVwp8SyWaszkqnOy9ddY7IrhXa9Z+fPzk78IcX3KY6cO9behuf/+RxWfLySGKbhchD2aAynzzgV35j5DRyGYchFfoZT2xTcswHWuS378/2u3urluwrgbZEt+Kh9DX5268/Q6KhBlp8d6k0gESDdEsw/PPV7RBwhfH3019GUbkKxs4D47psOFaAOtsFBvpAkH9nKv+eWPov3G5ahztcIX9ADv9eJmo8b8eTSBRgy5DBcPuxqnpuC28E2iPr7Ydk3vbcXDy7qHuAfiIWLX0QkFUbKxa5zU8Z5KevIKmO+KOo8dbj16Vvx4KaH0OxoRivaSL2S16TclJ+d/HnGI+9BTiEeHePf8vUf4MM1K1DfVo8E7xEn6CEqeoVDshGn0H30yQX8RiIFSErZshUufu5P5fP0WDefM4XNySqsqVoLd5aLAKeQcFOrdqURp+6SJJU4PC6EHWH86YlbsHN6Db5+zDxKXCeCzgAB/nxNFQHGyYK9hCyMEN77cCm5RwqebBe/SSEUbwdxp5IFBN1ZaAy3mO9FwUb75vf9T8XqLNC6CVd3T5e8FNVWN9XAUQj4Az6aTlECS3DJR5JOMnFSSX28CXFvDA++9iBNFhfmHX0p5WAuPDEPsv15Vmfv5c3TvKdddP+0K4EIwY0S4urmHUi6Yog7oxw7PE/jx0vVjgMpSbKNUaNeUbcGxxcX855W6X8q1n4EWBQk2Zd0xtixfOWh7o8bcEXB/CCw3Wm0OsNIpOswf/H9pmevPfpqw6F9vF4adk+KBbaD0HJQ8c4Ct6MturchTypfJOEkG5ZQu9QencufHR0w9+TuB+6az8f3utVudRTZsoCl2ZMitYpyU+xYmZjG1pSsJSkl3DGE/KQzfxtuf/E2UMHFvCnzKK498Dl6BrCaqiFl2mAGmjXI0pmBZR6FbdLnNO1i6KD4ELSWgSe7uP+V/QawqNUyayzngboqrs5krxmfB1/d1JhT+o4dLbYZo4z2lXow/5X7TM9eNuUKEhpBppUqO5njIlNUs+6gb3Z9a/+qV1bLK50GJFGzBteelDYz0HQBi97ruv5c9hvAVicJhAwMJNskO5D/LH7Iz/IcOajPusQjWdoizQgTifYsUvIrt/HXtKHkYDqArKgfub48qwKyfQ0fClGrPl3cpWhABMgd3Dyvib9JdXIkA3AlYkh5QuZqUarsZYlk6oCGc2gciHtbr/0P7v0MsNXrhjIEqDAxfUa2S6RTjhg7VW4Iq6R4okypuJtmFb+0KfmaKVcj4o0gG1nseOsRRM+q7rOKkxzCZXzNgkuHm9YPvWbJCBU68oAMqLq/flU77TPtNvHrflUOCMBOgqvOdlLgCTiBa3dmB7pdulEKUSQnhNtfuM38Mm/KpaQsB4oc+RwZllwWdrsEQJcKzEcLrrQGA+8r2a4jzfakOLBMu3ie6jUHFS5RtP15TzX29e8OAMDsLuOdYmezYy1w1fGfpL/O81wJ2rCxQALuMjce+Mf9pl/nTrmETNmLHGc26xHz/WQduwCw7idwTTH31iDbfVBooNklbUSFFDOLkk1jP20E2hf1sdcDAPAne8CasaQEpOaal5+L+poW+IMuxBO76FFmS0O0iYqtGxF/BPcsuouUl8K8Y+YiTHvaH/Mj6M/5ZOXd+EYzSZ0PzTB1/utGVX3m1D4BsN0bbs4Tt7XSPUmtJrIlCWeZ/QtpR6ycR9KZRJs3bBSu+YsfMCdcc8w1SPtCRr8WRe+rogGkPxG1uIllKO0icQ2Gvl56HWDbeuygBHaaPdneuXMk//yc8A+FqRGT0/orXYjFdlGwQVizS+zTlId2Mj1Q7d5WI5PFZi+dehlVJrlBPh1gM0h4UzFyvZccNjqAPvPo+3Cxkd0sGYHUzat66fSmhiakWoEff/2H8NbLFApyGpEuTZG0fNWGeAgPNd60h27HYBTpkhTuXzwf89+6m5MTLcbPLGeGwLLnlC0zR7DuWUrbIPfSYx3QansNYJti9/7pSMHuAErc5TgxayZu+dqtqAgNgas5l+SVh+KKwQyoiNLMIYWr1TzaEu1o9jShPbcRD71+D0G+F3X8a0o1IhIKW/a1hDe5hvxYdtE4Eag2FXd8Tz5scxe9Ojio9Gd0aQ2wrjK6y/l2PX3ptdcA7slDRlpCSDQnUY4KTC6bip9edgNK3QPhISXXbW+yKFikqUMtp4CJ0iPRyAiRBl8DHlhyP0Geb6aQI2TjBliDJk+m5q7LBHXXYgN9MFJyrwNsNNHO2qjeZ0Z+146Gm5Px1Jw9/BtMkI8uOwrfu/SbKErlwtnkhCcVpKxUk3noRbyXIjfGo9UTR3t+GLcvvAO3v3kb2jytaHbSZyW3lKYak5xP5lvBLJBtUPV6MJdeB3jvOs+iq6KyUrgYfKd4KS/J08/jpPJp+Nm8H2Kgs5SmEGVynDavAYuAiYQz1BzzJhHOiiFd5iAlP4h735yPZlcT55dD1kDgeUm6qgy4XejYuvvetbS/ndVHAFa3pUx8ls/nQ5AuSPmly1DEvxwcXXAEvnPuN1AQLYCzkWTbSJeji37oBN+beUZSJJ+knnZybaoBdd5a3PuPu/HX9x83USEhZ4h+kDjiRhbzXP6lbPnZwVH6G3R7195eN5P2rhmdzuJMkrRfH6lTCo6HQW8e0rNn+HTkzg3g3+/9PaoTDQhV017OY/M5tWiK0bCFOaMzfFaQ3l0v341EIo4rp1zFWWC5HBlfRb5gWbai2120K/krjt+ZZRs2btVuztTZfYgiMi377Je+ATBBJVGR3e7qcIXPyvvvc7pRyPfixHkl05G8NIHf3fdH7GD8VDLOOV2SroNuTFpOPF/guTnNGKGWTMeHqwF/evqPiEajuGT6xShw5nCwiDvYQPIi3TNzXzNNqWp4s45D52YOvvS7sv8HpOlQO5ztk/0lP7UVPcGmKciO04VyYBQwbKeIUJ9Reipu+NqPUOEagJxIAP64ZoOseoSxQFL4T4xadIu3GZGiGG5/+Tbc+crdaOG0YJhBO3EeKZlbirc2MdeEMAOqarIVMKtWgm2/6YevBwBgdSptVMU6k/Ks7rOoSBP+8miJWZpO1VvTQtGlmHURTahBmFZ2Ar79hetQmChFssmHaBvRycpmJAhdmG56SpxxgkSli3K3PSuM5tJ23PPWffjrssewEzWMza5B2kvli9OTDtnHYg+ZnuhsKum9qFelv4J8AFi0wFSn8tXuPXagvFQ6TJQMP+sndXCm3/kF3yUcdIZ4MdBRgRmjZ8BXkoXf3PcbbOM4idU1A9mdLmAFUtRirDDmTpi6/3fB/1AWt2HaxOO4sqLVomIC3NWlLDB1f7t0fm9/119eDwDAe+oadalFvZon7gTr7ieL0lg0P1tMaj6xaBqic6/DzfdR8Yow4or2cDyjdIlVm2IGUppjg2BTm37gyfmoCq9HVi6jP8imHXJks14NLrHmT1OyrMr63/99BOAMFoZUOmh2994UuBmAJaUVlZVDhWlW4UnwXerEzXf9HnVhylyG3CYZyG6C+hS9qcB5Hua77BTiqThefP0FlFQWm2gRASqMO7PmQzJ4967fR58yFPdZtREMi23LfPLQXpaGnY0TC6fgOtrJlb7DUOqh8pXIhy/uJ66kdSPTZT4xIoRyt83TzFUUYVTVbWRoLB0fmfEkkHfjy5/Vjn7024GjYEOtIkn18F6Aq07NULDsVV3nMvGVFL1UvWaNmIn0uQH8+VEG59GJEWP0ullMRupN8wLhrDguLge2qJV1KbKyM0s21R5k/2XG74F/KqfW6NreJQJu8N+tWRwEGYD1ovhIuTKtZZ4+eq7LMWPQKZh3wVVwM+LSl2LEpFnuIhR5AS+KczhHKKcTfJUT7GAHV93XZwBWY/7vIkq3qN1quBgQESMly4ExjFMUp1eehGvOvQKBCKOnE1mcT+bvKY8BWFQsz6bWQmkWUeze1NbBnvtZd/zfHUYS6KXC6CYSjhVnpVvos/kzc6pUk0ixjs6aDc/RzJOiGy1fsUWwpg5DgqJgC1yNSxtmEyGZYfOJeDNGeUqRPWYmgl8Bfv/4n+Dm0tRGp5frymgfp2V7Ww8sTFWHIDXNIPpd53vNZ7vd9oXW5f3m/342ZAWJdQggOig7DjHtYCqLLNtDSq7AzFEn4qoLroS33YfsBCOoOeWIOCk541vRWDHuzQz1CuSDkWX3GYBFLQpyM3JYNCwcu1EMYfqsKcQ4B0ERLeWZI0/GVeddgewWH/IiQQSi3JIhlgUv3ZsernNy0hWqjVV0b6fhLOQqeiV36ficoWCZZv2x7EeAber7v7vJsHK2jDqXAdy+Yhe7tr/Z9WrJGoHAcFuSqWZ+KzAAp1O7/tbsq5DTkoVgOJcgZ9OECsBH+eymbJZrtKvdu6vW/v9uH8tgm+yscSOgrKIgOAfa4m2MdU6guTlC2chvSC0Sr0Ye83ePx2MiOrp2q6jaOtH6RUDrT0V3kETWBk0e8ylNdUtuELdZCTwUA5E/6kwUfzkf//nXPyPiiSKW5iLSRIgTEhHKZsp9ernMrjpWlar2oCn7kYJpr3qyzdqgoqIg2to+2ZvhSATBbIXl8I9jxTKb7EGT+WwLUYJql13DSN9J7dIMlJNAu+gM8XEzlQGYMfwEXPulaxgVwmjNONk0Q3BlRlmRmrzKKHC76rTr7u+vnwKwHrTzsefHtM+wf1Vln1KhqU8xy4MGDTKUy0V9nyjtbe0oLCg0mrQ2KDPysGs0o6HSzpdqVaJg7VzoBOHCY3eYR7sD3qSLEJfgxFEn4fI5V5odfXxpTjPSjeVwEGQ2WhGUtvy1Xq3Pkr32X+c76L21W489vLr+2jc+747Hbr2UgU/GY+atDaj92vEIvE7fiU3qkKJqV6Ub6NDaXLkljhwyGaGdCWO9qoNFqnITSvFxNblQQjNHdos2SpH/WO7EBKlLh+q1NGfrfnbdVvzz7oNLCpuH9XvkxuJCZBf/BqOSlDwD13zpSgQzc8k+ej08SbehZhdnK9x6n6QjlN+rfZJh1L0zzL9DCTfPy6/7fFEf7SpCRUjZiOrV/i7zVqvk6b43h36yfbh6r0CZdgIpkGnSgqtMrBPZUaLeUsrDK075NkpTw1DuGgg3p2RBVu0Mp5CfzMPErKMxe9y58DjpZ/Zmmc0WJCMZ3k64HXxlmKypkqARMBXzjvdxGb+j9TjcdYOeKlKWj5+5NRL8Ytra2MyH4QT5pMNOwOWnzUOwxY/8OEVCI+O1NsQYPJCLdJsX+a58nDTlJIwuHMYhqStlhGny0Xo2Pb8eTSqEbmNxGsryLn88xSrqHB0HoOy+EZoBl63QDIyBUC2Sb4+dxAfRdgvST0Ur6krTxZnGq38Z1czf3YY6Pfzeo1P1O69VnWmyw3ae8XbsDfz0T9ejFtvgznYiyuUq4U0xzL/+YUwcOJlASHpyMxT+qeheVrGCZkWN9qoFM1tg30eTyaR4Aaxr1AZzf35QyICWq8qT1c64jk2x9VhZ9wGe+McjWLrhPaSzvGhvcaIoj37tmdMxd9LFGImh9HNzhx/tsUkWnqTDxADLalW/NcT4plOxeqfTFwf4rQHYNEqdYRcTxiKQ1TGScXIH8oHsDtMHvZdikjlUh8BPsyO5Rt48/C5HAutix7bESIfsyBrGVdTx+GD9u2hpb0ROIB/DS4Zhet50owGLGevQinurWEtRLLeG0CLjlOgwbdadWcwg4n8EglP4BgCbu+iD3XQ9lfbE4pDi/wnswHZsrt6I5as+Qn5uJUaNHI3K3BI+sQNDyHEMO9KA13OaImhZJLjVBruJpi3WTx3/67fM71bArvWLRR4dZ/Xqmw6A7buY5kuFzYAspwHXv/NnLi3h4bFlsg2wUOTD6/GthnvMe8Gjq8wo175E6hBSAIN1SEER/ppEPaHWEDJcgfs5FDiDyHFkU+ZJYmtgWX88ydTjMnWyHuNfVu28K+d84WKMlU7i8EgRGg0H/WrbgPrN+l2DUHdWvQzTTbWbXW81L1Xb1oCC7AoTsyW3JiOwUZzMt7xdjAhReI/haua5M7UrZsxMVRFF8z1PURGoPEW9op2FdC8VcSW1bH8CbPog01WmjWqKiYsSkJSFUe4t2cr/5TxIM8oxmPCgxBVk72llveCSFZphVlowzbdJAsjtRlHb2oCiYC4KXQxWZ+3qA8lwyeN2/gXYjepufRfXfC3pKs6IKfEBdYQ2XBErVvHxVTGRZvWgoV5+Lx5MMo1y140G3jGRymMXUtJyIOk5BHQiHUcWd+bRrJPaqs5WBxsmzyjLaIg2ObcRLssqYzti/D7O+to5VLjjHUNwfS7JXQ1zrotiC10UvGHW6Xfk0Nul3feEpvX8Ca6G1I7DLsl93ruV7YpwyLSn25DPnQiykcf2y9u2/4o9yM0dDbid7t3QWoOcnBw8ykVd761ZjpOmzsC00UexiSnkpBSVSKApV41803WZIDpR6Ie1q7H4jVdQwp1bjxo6EeOHHsFuUkSjRe3amFRs8r8evJmTAYQnEYZtuhgTSRBwKYsrs4Wvn3N9/3nZzwkg4VGf8khyN7qdqW14kO2rjbbgpOMuwLCiUUgxbnrt2rV4Z/WHyC3Mx1FjxnOt0wRea/0Jem69YgasL+AnmGL+QDXFxpINi7Fg4eMYM2Qsrjz9GnrDyrA1XYNFrz2HnbWbcezUozGhYgqv8bD1MXjImdw0w1S0g199qI5qAYcs9xapjdfg4WceRLA0C8eNm4ZjCqYT4P1bdgNYFNZR2PDsnGysal6F+5++D/XONry59T1ceu5FmDPuNIx2jsqcKiNCXUb6INiRdDM3Go3gtY//ib8tXciRzjW/kRQGDx3LTtTCbWnhKdJbK55d9jieWfs44gMpBLLJvndSese5dIWcQsXt8nZs0J0T8eOD8FoclTUBAa43Eo3E3A6srtqAl1a9gqrW7fiwvhZXXcJdYt2lWB9ah6fefxqBvFzut9WEEWVDGZVJrsOiNuivOdmEXCcnIQj8x1iLRVXP4X8X3ErYOECX/RP+fB/OmHoW1m3fgPmLHkU8K4rHVryEH137I5xQeiJB5tDgQDOdqAGn4RuIky9l4cPEctzC+O13PnoT+RW52N64DUd94Vhz//35n8X/Ot3R6lp+wQYLiuqGbUgGybxyItie3ILbn7sd97/zEFazSyIGKj2YJYJ0jcyYMB90zfb1qOVudatqP8LHtWv5XRtHr26n7QRb+KkB9zx/J6KFMdSQ4rbvqCYr4z6S3Gk9Ru4Q49RelHtKhxjA3upqQ7O7BQtefYLXiT+I+qlKUYQsr1qLerLAVI4D63auRcjdTibfiDc/egv1DHzf0rYJmxs2UNDUsZ2Sh3o0SwoqjKedA20V/xauexH/veAWVMU3s02tcJbTperaaWg7xrs2R+uxqbUKbblh/Ottv8TdH8wnA27lH5kwx3iYg66FtYX4eQ0Hy+/u+w98tHMlJRm3geIyV6fHEg+8/X4tu1Ew8TFF/gfJqzg72xv0oSHBOKZcboCSBdTGduBOssQ4zZsrxn6DNMGd6Wh7BFwaz3QoUC5JiWlpaULCn0J2hZ8RFPX8pYXzOyXsKjc7pR73Lb4DqSJ2SksbCrzlOJxstCBdRlcinQ10c6WTDHCNMrQ16MTbH69AS6gJyza/RcPqY4TSg7i7jmRmEu3JGOobm1EbqcWoQUUUyRx29D9GqSQ6g9zoNBJGU0Mtn0dnW+LBQyUyweC7SlcZ1vHvxfV/Y6jPLWhNNCGvOAstvGbHls04bXQrA+65WXnFcEwaNRLvt32A1TvX0NtWilsW3IykL81zzsHhGMcBxD7i0y1rXYrbH/lvaubr6XdnW9oimDL6aFx4ylf45Lt1t+nr3v5vj3fsYNXUjtPyJPGIU1ttqWuBJ8+BhqxG/OnZ/4aDMzQXHnsJVxkMJvU1UR4FOSw0TKwaFMKaJE1HuZTEkr8xfopgR3or3vjwNXZHK7fy58YpNR784JofM+hmALtTAXXSsqMcEs1oIHVW/e5fGcDOyYpIPV5a/jdcduS3qTJ5zGLvvAJqui4PXaCDsW1zFU1WykUv5aMGCUGWPLTUQCtIwNA+FaOENkbFFry45mXc8sSfGYzXxkFFrTfK+1MnLCrnkGBdDbTWyzkwv3np1bj5mVvQEGrgAKKBFXTg5vt/j+xvFyJeqrUXfqwOLcWtD/yRG65uNmG5bVubcPLkk3D9RddTlg8ivPtbAotMOxV9sL/oYNUdv3NbX04EBIJB7p2RRpiRiQ++fh+eWPYINpEKkjQjpD1rpYA0UbMK10H9k5poO5+LmzOws0S7dXh5+SJU7dyCUEMIxaki3PDVGzAeozCCdudQdmclDyk3IzAMkxxjMW3YJFR4ixEPxfDe0qXYmd7BemrZXdy0pb0VXq8Xra2tGFhRAQ81Ytm3Xs+eOlO6cBoN3N/jo8R2PLZ6EX5LapPAkJFfUV4BPzkRN+2h8ysLpfmlBjjp3OOcE/Cr2b/FmWO/iNDmOCcrqNEztvpXt/8bHlnxID7AP/HHJ2/GJsr+YHEQ0dYopo48nuD+FEP4JMV8pgNKwQJW7kUzN2qDKnMkU+Q0iIcSOOPMs7Dw7Rf5rRO1zHNw38t3m8Vdc6fOZYenOI455UdmJbsxJVlKCgrRZ9nKTpdrYXloJR545gEUDyxCrC2JQbQ9px42hdCWGpoVKxW1W5K6hR0cwPlnfBFDPx6Ipth2ZHPZ6Pbt25FVnkcTxs+0ABHMmTMHteGdCHLdcJC2tDHBgvRAsbipicuVqEJewnpT2JSuxsr61fj9o0wroG0huCbZR+DHDB+PD1e+hxZaf+FwmM+TRRGkpW8uI139NHR+eM5P4GJgwcIVi9DiaoenwIW7nr8NlasrsbVxHXJz/WhsbMDokpH47rzryZMGkc0XIxGLw+3dI8M0beut//b6joovzsvKw5RRU1FROAiPPPEI2mKc3y2I4Om3F3BwxHDtsVcSGm7qTYpIc0tg0Yum45IcNVKKNnIb/WdffxFpbsJdz04o9pfg8osu4zYNBexe0Z20bIGQ4P9S1cgpyKazs/04YdJU9oF8VB76k8fxnVhuCpfMupgK30eGoss5SMQGFc2hFYVaaxwnt/G4pemrNSH6rZrxxqa38ZdH76B70tpNIJgqxIlTpuK8k87BD95ZSi2da5T9WYi3Wo5JAe3lQLOeCPjSrAu5AUwCj775KMLMO+Hl9OfW8CaEqQzGW0OYVDYR3/3q93GYcwgHSBE7gC4OGciSXLai01uIdqn3UwFWW7Q6wC5mSQnNnUJHCQ4rGw7XtCzc99zdaA+FUFBegKfffQaegBenHzmLEovmiI+zOXwiOU28BFheHGnAb7z7Nk0JTsqT1U875ngcnj2M1KOlZWnan0/gpXdexJqa9cgtz6UyRVJyxRFqaSRIrDJA7TfEGKvGMsw773KcPPMUPL7kCdzz+p2GgrXS8Cf/8lNMHXAympqaULNzJwrycsjCPRwsMcrcDXizahluf/wOI4OdZFkOTnacP2sOZkw/0RoyoSR8+UHeVjNKDO0htJoF02s8nkSxp8Ro6ecdfx5qvDvx+uq30EzzDNzg3EWnyOQjJuHaU79BgTMmQ/0cXAcAWBu33QHm6BKkBlzzzj7NepX6k5PIwyTPMRg8ZgQfOwt3Pvu/lKdVBCwbd/2du7QXB3DswPFwUMP0006VK0/Ox2yeLebr4BpebQCaphx8/fUlmD3lbGqzA0lbLXh97RJsde9Aazk16HxuiZRuN8Hr0XQL6YcT+AxmzmLMa0lJCaZMncq7ZzMChP4qsuCioiK4QhxIlMHaaSc3N5eAxAyLTnBuuSpVhfd2LscdT95B30yM4490yZmk2TPm4LLp1/KZHdTQNxBGMmsSrtNMF3IKk9/Ity6RRKuMHEoKY5IukZ149ZVXEAvSj8eVjcmmVvjp1Nm6ajs2lW3B+HET6QZVjAnFnPYJMWWXyMt80esvHXe0gRW4KmJ/1g7tYotUnGha+MhmXFEHuzWAylQFzj1yNq445wpkcfK8roGP3LIDf33xYWqmC9FK7TfK1fVJLgpzRDXH5KSawciKiTM4y0TnRzsZHvWg5etWElwx4iYMPKwS7WHalVzY7c6iPzrAHuWWhrJxkzkuziySDslVBG5psBx1ZI/yDTr8fjTHw3BS3hYUFRIscY4U8vLocsj2oSnSgA+rVuKuh0m5XLYqD2c+qf3MCafgC0edxefJI9cpI5QChM/IyQwn2araqdUT8qrL8yUNXNlaVrWtxH/97x8wcMAAxndx+0XOLQ8tOhxOpn2I0135t8V/w+IPFpFjtXA4tBruYRloNtBWH++P/3ejYEkcuwmSicY3TBPHRWeDk5To5Hyh5mpy2A1ZvhxKvJHIO/IrRqH6n6dug78wh+ZJMx5b9FcMGzKUSzc5fmLciJ+GteKktOPGvNO+ikUfvIAQd9NJRNpwz9MPYdp1J2OUdyTOPulLmDxxOtbXr8e20FYkczkDm5PC0y8+jlqywXwmrXL6s3Hm6bMJBunXn4AnJ4idjK8KUcQ5W+k8jHFw+CmpyTzyCwP4uGoV8g734X/u/wtlLgcn/dXBFhfOPeF8XHnKN9mqfA7eHONQMdMbNJ8kVpz0uacYeJAkxNIGrIXjUayILsdvH/wdaqLbgboUAmE3Tht3ArmSEwvrXkM7+2pV7AP86fVN2BJbiyunXomy1EDkcq7Z6aMjYT+X3QCW/Le8qhbQAlzzvNKgTYSjWKyZxaetKZZLmTSAMunsI84y2vddlG3aEbZwWClWbfuYu9Ex2EUKNTUtKwyOyz7dRZh7/tdwy1N/oAZLLxWD1e96/i78y+x/QV4OOz8ngAF0WLRRhslHtmgHuUGIlMrSWNOOeXOuYeM0N2vN0ZjV/ARF+2XtWmtEV6b26gi1oJR1bdy5kYpakOuS6LypjWM2laSLZ37VsHhPms5/TT/ywfX82i7AsiSSzMQitSzEn1yG7S+PrMD3f/8DchQqf+0hM/FywpgT8I2zrqZZRSFCc+0FujJruRFbiPrC/Yvvg48a+vcmX4+IT6ajDCUpfPuvdAAsEHWYItFJX7QalCL7TZIla8W8fOqa9dGsi1iOm7HFnngaQz2jcOH4XG5DyJX0C+/Ftq1b4S4IIMYB4KKDRDq0ktdIK85jsquzmN3szeUv4K0NbzARVgzPr3oGo449HMNzB/PxOSnI7ZB0DzlFnln0MGUbtWqaqpXuQZg98Twy03JJNh5sBdf46tBa3xQ3jFaYjzxWCqKL0KDN5WRJbW0N2XUe0iEnvnTWBZh3wjyaLtrcRdBRBPB5LQcNBySTgmjD05Rio+mDCVExVIDAknVL8D+LbjPiIk17fBA19S9OPwffmXkdWjnPXeDNxw/P+CHyOZCeePMxbNtUz8Hqw53P30MlLw9fH38575jmwd2B9mPpANjcU/PABmSa9m6Z96Q7s+09AdbWvpzXNXHEPFnTfPByxQBlmeA7jLLqouO+TDJI4dZ/PABXkJ5nugNJSFRoNKGoOCyxeCflXS4unHk+1m78gBMTcbRQXs9nRzjqWGeMlMfV93Hap0nufRWRF42tHMBZoS+PnsOOHcg1R2TQNGU0HUc84ONlMpsUR+VOUpJS5VZ8lZwVkZYYzTtmUGMA3hdPno0Lp11MmcspTAIktksJTjBFvRZ9uVl3km2SqMqiLS0laUfrNsx/4n7spG+7OdyGwc4izBg5DdfOvMrUlcVdB2RNlAdKcNH0rxiOteDVJ9EQoU+bAQ4PcaIiwEmNK8fOM5Gitl2+P3AWIViFwAgcu8is0Sr6dBOViHQhWje247Cc4fBGaR8SUjO7m+JEOLsoh4/pJ5UPox/qm8deix9c8F24a91mNUGQK/38EQ9/taxJmUQ5/HRKyUmYMugoeLiDXT73qKyvq8c2zh9XJ7ilKNvRxq6NOVlrbgEC/gDa6tK4dsa3SL0lCHJ+V4wuTmeEK8qpyzhb0ErVL8yaI3yfZqalJN0LrlKkG5x8LcOcUy/EVdOu5fVUjMicOZXBwcGMp5wBUyeIdRay7gpfJYKxHOQyLstanejAytWr0NpGjxmvDCazcfqkM/HrC37HugbySXL4l4+SQBlrUIjuMJw/dQ6+NmMuytIDkGqgKImnsHTZe2aw7E9wheXuFKwnlSASzjxidF4cNWQCjqnkHDDJ6IiS8agMDjGOxAypdwhtTWT7+ciyF88ccTq8swNY8OwTKOEG39PHTydLzGPV4v2kYoe8TAl89dRLsfTdFSYozkV21u4hKdKvLJ+AtlaIReKo2VqDgQMH4oszvmgUNROdSVYsJXBAVgmOH3scnn3j72hi5rKTj56OcfkTqfwVM0R2Bt5Y8RZKc7i6YdJp+NLkCzmNl2vqkGUrWN2MyEhRFPGuBuAETa5po07GS288jxJOKBxx2ET+lsZZU87CS6+9jBZONFxy9iW4ZNpXOMQZgMCBpN1wJftlWznpi1dYwQj3WLgmBRDl4Hrl7VdofQRwAhUxK5CJJ+zH0hF0J7llMSaG5shFaVh1miZGHcKBFny4fiXGD59KqmE0AwlXkRouRk5IetHaJKy8RlEtIcq+fLk0ZCQ0I86EFyNdo/kDUYvx4HlpJqSUPcn19lhWtRR5pQyEp5BtjdDzRc3bQZBVtG7IxffyRJX4C+gZquQgEvWqR+nbbuPEIMNuEvQJ13D2qjBdgMq8StqkVGgoP6tcG9mkGIENkMfk8Fod4iZk50RF1CRZK4B1KJ4kTMa/cscyjBgwgtcUIkox0+7kykTeb3XzWgzLG8lvy1iHguf5VOynFE2vNBVJuXY0ISltQ+eHOU3YQq6kqcLS7GLTBnFGian9VXYDWNGIAkAzOgq1Mu2g7Rl2NPFxskkldBDQ/6tUzlqwrYcwYTE8UVRhirg22x93UCviQ7fEmlDkreSXfOgYfyAFS3BqR7pwMsRpRi+2t2xGcW4+bWduOeiwwnRkj+oQRxDrU/1WHAZNI3Mjq5NosNEcqUHAm8t20xctLsHJggaG4sQLuNU/r5WixMdg22kXMwDBT63KKJSqgoceVYfGtL5q4p/uzsQ95lXAa/aqmiF6AXIihQUpTECDQmqLANbV9BTwsNvFx6eDJUkFLMWbu5mX0euhk4d/BwRg6wH1v2jNaqR5YspDTfxbRSCqedZ5mS/NJ9NoPbGKLjfX6Twd+pVfSptRIQbSXPWbZexY9UWZHTTgzua3jP1I0SHhFMOzi2EprFZdyDbRbmN6QUPxxgBhOgD5y7XXFscVBwqHFDV4td66q75nK/ibaZ6qE6fSi86lPpGi69LF/IVx3luxVy5aECrKUM4VTXyn4azeERUKKH7Dpst0tFqnb82DZf637qU6zLOyzZYMtu5rfd+7/3dQsHUbC4zeveVn1x6iNhoIBMwitOdfeH63k00+h0zclw2wkyw9zdGiwLnuFiv7iwVwghZCmnJUC+ASXCCnWLChw4Zi0qRJZjpSkxealuxcrEVxGicWqIYr8IRPV6SsgdwZ9s719cb7LgD3xi16VucPfvADbNq0yVzctcOslYAWBRuASRmiss9TFOinHQbcNLH03klFLh6PY9y4cbjxxhvNzJQNqH0f+/Mn22cBbp93IF/7FMDqUCe12ut/dD22bdvWAVqKfFCHOtS8Eght9aD3AkLf94SCO3e8qFb1dKbgGHUODZyLL74Ys2fTPfopFNyXAd5/wqBzb37Ke4H0zLPPYNPGTVxeyskKskUdAl5UJUBVtJ5YHa80PBoQYqcdO8sT/J68Vx2qT9faobr24HnkkUewefNmMwA6N13Adga36+fO5x6o930K4APVCQfzfbuvmRzMvdHl2TpTpy1vu5zS5z/2aYDFLjsXsebeLKq/8z0FsICVeNDRH0ufBliKVOcin67kcIzOgwGcbG9v5wz7Pig2dXYGV/eWnLeVL923M0Xvg9vulyr6NMB2x9s9oc86FI7T0NBgf/25Xm3Qur6qUvs73dNW8D7XzQ7AxX0a4K79oShJabYKadX7fVU+MZAyZpgA1nEI4H3V0/9HPXI63HTTTR32r0yofVkuvujifVldn6irX1Gwn8F1titTVKzPvVVkX4t69aqZInGO/lj6FcBilfJTy/Gh911Za38EoLfb3K8AltZ8ww03GCVLge29ScG93fH7q/5+BfCyZcsQNIvfuDfAPmTRtrZsd7rY8sFS+hXA8lXbitWeqLcrUD0Fyba/jfZMe9i89lM7+OAZqj1F8yC/7hDAhwA+yHvgIH+8QxR8COCDvAcO8sc7RMGHAD7Ie+Agf7xDFHwI4IO8Bw7yxztEwYcAPsh74CB/vEMUfAjgg7wHDvLHO0TBhwA+yHvgIH+8PjUfrPlcczAA3X5/kPd/rz/eIRbd6118YG9wCOAD2/+9fvdDAPd6Fx/YGxwC+MD2f6/f/RDAvd7FB/YGfUqLPrBd0enu3CFoT8X+tqdU8WnXaycglV317nq3p3Z057tDAHfpLYXmJpiqR0XbNVlbRtlbMWVO1rLlzCDQL/YmU/bqZXtVsxKTcKvTDHDaekmbKdnFCsfVhjK7yr4D1q5z39do19wPXxVMrzVIDq4uzPIy30M0wjQ7EYwdOQJe7rhndoLXc9lIZsDlNprcao2pkHlokzbti9fKnbPqmYdJ+/khqV+sBeTqcK1vjkb4fVqL5zSYdGhPLw2AfQvJIQpmp6po/a920bFX8rdzP+ji4mLMOf98zJx5ChOEcbtFbmiXZBqJbKLoYvJpUW4TNyCv467vIS5OH5HvwT+rm7Fi/Roce+zR3Bu7kHvicXdH5jAMuLi3YqZYu/Vozy1tHmlte9iZQdvn7YvXQwCrF8lulQNTmcfd3Ea5njmPLr30Usw89TTk5hfA7XNzz05uL8zFjFqVLEgaSYDatf6exxbgjeWrkV+Uh5t+9A3uTxnBU88swWMLXsflc7+K448o4W652vhwVxFTFj0r54t2zrP207Z+37f021vDZtez9Pl3nTdQa25mejqyz9/85jc464vnIaeohMlF3GgkB61pTeAvDz6H1TuUfBbYToB/fstdWPjGSm5YGkRJ+VCOEO6tyWym9S3gIPHj939+nJnQXufZWWTZLtzz8JNY+MoK5ljkntj8lsyAWyTukuH7GlxWv48ZvmrsR0WASuZ6uLm46KispAjf+c53cOTEycyvQOZK/tZAcB974R38+Bf/AVcgG+UDfEyGCcx/ZjFWbmVS+yzuFRJnTqUY09vRl17XxESZzJecdJUg6R+A5177EA+8vYpZ34AvnHsuHnnsSfz7H/6Cl9+t5l68rJ/sQFnTe6v0xqDprbbu83q1gC1JNqvFZdqT+mc/Yc6lKUdzozXKWYrIj7eF8Zv/uh+PPrcIeWWVOGP2iagnb334byvxyvJ1zIqaj7Azn4kwc8luub8mW5jkZuXccNlsZo5AMSk3B7/4w134qJpZ0sjir7jyG8xQE8Hd9z+Jex56y8hz7aSr/fV7o/z/AbBMmj3YtrnZ3IeeezlLe547dx5Ky4oJAtPlUYteU92GX/32Zqxas4F7Wbvw5a9+jbvQUlOmZvX0P15huj5mmOE2/RFHHpUtgcu0BwKY4MadXAVJzrCznVsac5vjAcOPwm3zn2FuZeCoI4swZOhYNHJP6+dfWIJb736ZKQwE7Z6gsPRq/ap3PSm9xxt60pr9fI0WlGdlBXDJRRdi3BFHmgXlDczuFuV05dDybNz0qxvw7MLXsaW6AYOHWBA8//w7TGDtQksbM7H6izMWk0wrCyClAXAzDzKYJCTKfIVZOdz/OpCDHbVb8dpbVTj3uMNwzjknYUfTdpw881xMmVzJbKZKuGVt4iw6lhVm29/qks9jOvVpgMU6NS+8r4rVabs6LM4EXBOOGIY5s8/iBuZKnQNsYGaWxYtfwcxTTkIuE6Rcdv40Y9/K3GHaCiz6+5vI8eVyc3HuO08nhZKGCYACbi2hHeA95AZ5XiYj8VB98nI3eQeTRreFkeuIYPEb/8CM4+bh8JEu/OE3l6GN8pf4Y0VtEq/+fSGuuPAMuKitF5mtRzhguNu85IX2CDGbWvegK/o0wPsKWLPxdycWbQHtRGFhES67/EpmWcvhRqQerKXf4d/++BgTdjXgraUrcMrJR+O8U48lgAmCzGQizGv1qxuvw6bNYWzYVIVVK9eaJtbXNyJSvw6BxBgMYL4ktO2gBp7G8MMPR0lFGQ4fWoEhJbkYxZSOsn6HcE9qpayu3dmOh5a8j1ff/4Cby7ShjZr61Refw5QBpGg6QvzcnNzaabwHyJqWcXyQSowEyHw+4C9PPfUU5s+fb1byy4TZFxSsHd1tj6BNxXrQOXMuxBfO+xJT6dHJkZuFa//9BTSEabaEm5hGqBnpWAOOGDMM37xmDvMKAy1Ue/00hFtoBtEHwl1pYbIgMbEKEsxUOjSXe0zT85VghjNpzTKnpHjZHcw8mzSYeB3bo50Rr7r235jQKx9xauce3qCtdjMuv/AL+PrpR5qLpK7pYm5ybHbI13XdLf9/UDBZqEBWof5kyUi+P/2Ms+kkJKslMI/9YyOqG+NoIioFzMDWHmLKHuaMGjF6ssxbbK8BbvrX32Hc6HEYOXIkysqL4WUCzlGjC+i75jW5LiYCYzIgJuSUA1ISeRsHwo6dYWyuWo+67fXY/NFWeiXD+PlPrwDzdWHY8EnYUhdGtVyXTLyZXTIETy1cgpnHHYlB9I14mBXGJNpmXT0t/QpguRG1R4fMG23crdJ5f8nP6gSlzxGlBrOymNchQlfisSgozDNgrGwC7n92CR0aeZSZWainzHTT3IlRcao8fDizxwAL31qOqLcU/1zfinc2vGsyrYUiTdzWycvcjCFMGDEQv/zWRcbYufA7P0cLM7xJy2ayWgOSj+njPdSqHeFGVFW3YjTT3k44+jiseOIluHJy0UIPWIruNGnj9z32Ir47l6mJSLJu5ZUg+9GA4Rvzf3f+61cAi10rtWwLeaScFHvaiOXTHl6KEBOhGpu3iKnSzj/3i+ZUeZOWrmtFGzOHx+iqVM5k7kypkcN8xT4UDBCLBFZtXMdciwSTuQ6VNi/FlEJhatvKOZtMB2g2FZgpA50bdtHx4cjmd3lU3pjDhiAlmYMq6GlgplYfNm3fiuFjxiC3pBBJZkyNSj/g5Eab2egliDVV1Vi1oQFTDi80DhirBaa53f6vXwE8efJkmhjnGGDlgVJ6970t8hY1R5IozM+GK1yPyqFDzaUC+LWlH1FeUuIxMaXlaY6RVpifcEg5lOFWHqf129cwh2U5JyWY04HcQBwhwdR5SSbDUq4kJrPlqzR01sC2xZkeKE4uYOxjAczvyXGZ1cWJDz9+HyeeOgallfwyizmkmPHFEcxDhPmPlV1t3eZN+OjjKkwmwCavIuWLod3uEzCfuh8V+YmHDBnCTKLZZvt9F0f/3hZ1vNicqNjvHoFEtJmTCMxaxs9Vq1dSEucQHG48Smpy0o6Vh3jk8EoD2I7qGMhdOYNEs4epVUTjYpcCmslsCZ7DODcEoorRWyXrmTZPd1V+aCXQYoJj5otyYeO2ajNhkVfCWjxMxMkZqaCH2VGZM9EVjzB3cQKbNm3kBZPI/pXviXXytQf49i+AJXeV6du2j+09s9gTn1mU7kYUF2X61FyZMaI1sVeWAmLw5xsvw71PvIFXV26kw4FpuJSDiTkRi8iS2f9Ys6IGoVg+NWj6mAmalfOJ4LqZ6ZTp+BJS0ZlMU0W06iar9VF+O3mickB50nJjKKtbFkIR5n2kAyTE05l5FhVMf9u4tRpRJteuYNKwLMrz2V/5Ai486whjUjHftAG4p+6AfkXB6sBf/OIXZkPS7shfK58RXYd1DdR+S/Dj679tchuLpZJ4UEGHxvWXH4/D3xiLBc+/zJyJTATCJF1jKgZgAA3XbH8hk1OXo53AmcElaiRwMrnk6DAM2KG0thaVKY+TRoGGkjLIeQz50Zrmd1Eqenl0kdbvBMoo30uofefQu+HmgDv28JGYe94MavEWq69l5EA+PSyswlRsnqObZNyvAF6xfAXdhEmznWGEqeD3tqhP1Dke2qcOppnzcKaICecMy/v+Db/AjFPm4KhjxuDM4/NxwtEXoJFG7OKXX0MeqZOZ6FFXvQXhlkZOBQY7zC3d20FWrokCbvhvMqUJCDJZUjTlOeWwhoBu4lDKeH6KpsJ0TCXpHnUh1LgdlZUDcdzIgRhakoNZs6aD4tmoAFvrgScfeRpnzZyGojFFEBUro7kZMXzpTulXAMcTjIAgFdXW1pot/U0mtG48bXtzCwaWl5I9MoUeQVZe8eqmMB565iUsenc1LrjgXBw1ivKUFPS1i6bDRzaaTc9EiT9Ju9SNFsptyV27aLBl0Z2Y0CvTzkojUId6qTQlmYcx4aB6Rs3Kx4EgpS3FPMleZj3P9fqZ01gmEXD21AlYz4geOa2aOWafWbAai/72BPyUx0dNGMfrishNKAH4uxwr3S39CmBlIVURe9ZEgZ2kY2+8XWKVYo0BXqvwDUlMadApP6f80kFsaErj3+5cgNKifEybNA6TDivAtGHMqUrNe+5p4/Dls8Zx0p/Oi7p2bKrahJ07dyLEsJ7GpgYCl0B+vA4FdDwVsYkF9IANHpiLnIJsBP05KGSm1uygBxOnjkIpFSv6R1BIwCQiNMjeXt2Ej7c04LVX/2kSavsLmAQ71YaaOkV2WdxH8WA90Zj6DcCSfUk+pZGBknGdyt4ALPaZ488yqWrdHCh2DUkpTql8JH35pFBmI68NYfOzC/FeXgqzfnkpIpSZOzibVDKMectJ2T6mcB9cOY6cZBydLgSK/mVRboKjJZjpzdv+/CuaXNYAEkI5vJnO2UhKZSgX87gyQoTKG7Pi4q8vrMW9C/6OvJKhCDFQgJY420anCO3mNLmFcJWL0qFMnKYWvnSj9CuABa4BuItKuTcAq6Pb6dAPMUV7OMw0tvT/sr/Rwklai07oLWKm8WQ8bOzXqro6vLc1gfICD/7y2Ev4YP02DKZzonBABYYPH46yMmpmLBEqQcxmz3ll1k8M2sQagozX4osGkdhu1TZOLLS0YV1zNVas+RANWzbgJ9d9D0NKgUCwgAq9F1vpygwU0s4mq6EUNxlQE53EAajEHdQAy7ExevRoPiQ7rgcAS8lqb25CecVA5BFceictKqZzOs2MpuQPVJqU1o40xNCLWMqHZiaRHkKw6sJMOesrpDerAfGqJvzjrZVsA+1b2uFJyttCujxHlhbhx5ccj3b6NX920x9QEwkTcDkomPs4RYcHheiOOOVvfhDhmnq0kYI1GdESJqXSkaHgvgi9Xkna4TKrknxem4IdBN3J+1DV4tE9QdxvKJhPZoD99a9/rbemdCfVjUxVZRdvb1HUMimOh+Z4S4IMlONccJyTBG0EhRyZOazp92IIbZQRllU8fdioSah6ewUnFWjVZib2VUeadmuSGnJLM82fIjddmYrhiqMuws+eErQzmTY9GUbDJlwoLypnKHQb2XwxHS2ykJ344IOlyC4g6NQLQsyermwyza0RKoEOjBo32shpN6nXyYTaPSndGw49ucM+vEaAdgZVVL23h8CtI9v1cL5PZk2cBrCm7o4ZPxItO6vQ2sBsp0xHT18Tv5WvOYn6phZ4eVJ2Xj7tZTo0GI6j8Bz7iDus93HyZPmc5YqMs0etkB36tumPjjh10Cyj7zoaJZega4qQc67XSlate8kf5pLMpXLm4jRlLs2zohwXBwQjRTgwZYi56AXrSenZVT250z64RstKVqxYYRJzyA9tB6nvbdUuuo7qGsimSwsRzClgtwHnzJqBbc1xfLixFhECzPk+djnTyrLDq3dsQPa4iSgrykaCLsSkj0ASKLs4SfkaCC5+p1kjYvGZJdrWTHOIIXnsdQUPyH3pogauw0uNICfdhByKhSljhuDb807DYLIYP1m5x8x1cuRIqOvoRulXAK9btw5//OMf0dzUbEyk7gBs5Bk7ykWS+Jdrr8Ips043Vsekchdu/NaZeOD5dXjyhVfJdyXnoqSyEFrqt1DjnYiCPKadjZNX+wr4eyemp/eKl+CrMCBHNxxFimDXIq9XPEqpS/ek38dpS97Gw9OkLQtgUfGQIgcuOf9szJhcAd4Jbo5ABdob5UqWg259MAMs33OH/5kP353kGfJFh8JRzgf78O7bbxmAObVgekyxVOfOGoEpx4zgzFIVnnj+ca5JakCkNYBWsubhFT6aWGTbDqnIfqMLKPO45joi9C0nqSglQvRhCwoqU0nK6hDtdFcwm3cQItTQ+TJ88CCq2TsxfEAeBlIJb6BCtm3jx5Dde801V+Cowyw1ShMg9KtQFzCXZt7wvQFXsrjTIOOnzyr9ioK7PoidPKPr93v6LCiV87CpoR5rPlqJ+i0fc+JCdgrnbJvDiMRcGFvmRcGsw3D+rO/h1aUfIrrlA064tyI/mI8Tpx6Jl9/bglRCNVEuE7ymxmpjtgUYRJDnK0aUP2nGK0WbVbpBgpTsJODybceiLahta0VpVgqTxk4FLTWEmtvxy5/9BPmDJJWtsnlrO956dTGuvPhsoyOYH4SpddvMWXv/svdDYe/r7LNn2uaV0sev+GAZ5wvYy4k2DCjIwv13/jfu/OtCUrnVl6dMHo/zZ5+OEg/911TuhlcWozyYRjGnl3Lpckw0bEahO4qcFBeltO9EjGGwKcpLKU0KxdVgkkIoU0pUXUKPSIquVnnKhg+tRAXl66DyICrKyat53U6GdN517xL8x29vQzFDd8KkYvGLGKmWUbrk10TZUHD3IOvXFKzu7E5pbW5EXk4AzoQTq1avwclnnkmQpcVyWcmZp+E/730Ei99fjhETx2PasRNx5pAyTh9SIWIHnzBlPGbMGM/4ZjotaqPGHx6mq1IuS2nn5ZwwkFzNZxRIeS416mAWxhYPQtHAQSiljVxRCIwbTHcpQZKUryGADOTEhysb8Pe3lmHVqtUMrXVw5sqHM2eN4+y05coU8UoZFAEL3+7BKw28DxUtI2lra0Nra6uhAKWws4uowfZk2d9151UKmYfzvCoJUtLi197EuEnHYOLECcgrysXYMWMxbtzReHX1Frz46kYsX5/A3fQHH1lRgB9//TQU0+GhTk5S+5lQ4sOmlkE0dQiYfyTnma1BILMrp9iB226aawaGWq9DPu8EAfUQLdnZMqV3cMbotrsfxuoN2+DLK0KE0X5+bxhXz7vQsGZJAoZVZ/QqC1YaVqype6VPASzFxUWDPy8vL8PeOPGe8VqlSGmSuXvSUPfmkVVPmmaNh/eIcSKf4RwG5FHjjoQnpBjkAL725XOw4rd3o4acu6XdgfowZ3vb67FlJzCY4vrFV95GPCmFyU+qLOcgzEZWs0VMGwAABRNJREFUZbZZetokANmb9F9g48Z6rmpgIA/Nsu319di0dQdq62qwcul7uPnmX4P6GJa8tworN9bA4c0xzg0fyf/i2adyacso44SJsSKX3wZ2b55wz+f0KYBFuSFqHwrJ2bFjh3nwDoD3AQU76fITJcXFlnmsXbsWS5YsYXz0HIbypFGR7cAPrzgfv7v3Oayr3gx/bhHCBPTvS9fjgjOGw1tSjLv+chfnbcvR3ELzhgA2tdRyxiiCY44Zh29dcymqtlTjD3++g5MUHtrVPho/mj7glCFl/alHTUIWwfVxfP399ffhzy9GgLZVINlCGc/Zq6mTqOVbrDjJ592dIXefegV5nwI4yAn1SZMmYcqUKSbDqIC2ARaL/TwsWixedWl1vUwtuQT1KjGwcuVKjOFEQjoRw6Qhefgq1w7d+sDTDNPh/G0wBw89/RImTLkWR44djsPJyt97r5psfTjqm/l7YQ6yChmkl19iyclAFja3hE14kCb/Xe4sguiHnzP2p516qonwWPRuHYJ5hahev56rKiibB+Xg+1dfijyKAclnyVz7uQXS5yl9CmAF0QngA1Oo/dJYddHEmTJqIOadfxoWLHobW2vrUVw2EO8s24TKU4bgvPNnY+36RwzFe3KK0Ezzpy0cRz5BFc1FQwnK4QrEQn74PEWEWHy7HRMnTMTwEQXmnGeeehLrttYZEEcwsO9n376Y878xnuk1KxA1PejhqkfbX8LpENMlPQG9Z3R/YBDo/bvSdlVsVAkpafqkYfjljy/C0WOHoa2+Gm+//irniznxUJqNk6dPRUqbdSgOiw6UmJOzQIyNFrW4OfmQYuy0QmZD5DpNIcZv05My99JjjJ386murEW5tpGkWxMxjxuOmH16MErLsAmpsAsMAwpHi7Mk6lT300CGA2SmiPBlLKTr005rAoFlEzosiss8bvjUL8740C+3VVXh8/oNmYdjXZ4/D0UcO4CxUEyk0xEkKNw8vfVz0c0nZoj9Zwe7ZAcZi0VHyn7/5Coo1sUTKXPDsi8ilM/q6y76Mf732bHCFCgeC1QZOaJnJBTbBeL740+cuhwDu1IVihAKbBGWmEhV5EeCXpx8zDDff+EN6ofx47e1l9EwBl18wgxMDO5GfqGO4ThPyONfrJVB+7rEV5LZJuYl6DMlJ4OafXo1BBFcm1G9/ewcmjj0ct/zquzjxyDIzIGhVcTVjGOEoXZ5qAD+raBZpX5Q+t7pwXzxUT+sQuHZR/0rZMdTN/6TUigJFXXrV95pPvuOpl/G351/EiGFDcOP3von166tw46//A0dMmozvf+dyg5cUJ1FS54MfO9ix6hOiWmelQAK77AsufQhguzc/49XY3pwuMkDwPDskTMpPknZXhJr4mtVrqSBORENDM+eR6xkY6EXFwIqOWi1wLfLUe9ue12tX5ckK6KWnyzq9o46evDkEcA96TdRrF4FsqN2YYS7jfeLUPRUua+GntczFpt69AzidGUm7aNm+W/df90Ud3b/rQXJFhIu9tf2SwEyQipOUvwLfq88E2Qb3QD7uIQruQe93pmBdbutDaVKxpgk7PvNdZl2guYvNcW2qstm03YSurNr+/vO82vf6PHUcujbTAwK3c+kMbufv9+f73Vu0P+986F77pQf6lKtyvzxxL9zEZr2fVfXenPNZ1/f0t0MyuKc91+W6rnK5y8/m44Fglwfinnt69n7/XV/tyL7arn4PeF95gEMA9xUkeqkd/w/y0XZ2k7xIrwAAAABJRU5ErkJggg==;" vertex="1" parent="1">
          <mxGeometry x="415" y="350" width="120" height="159" as="geometry" />
        </mxCell>
        <mxCell id="JGLgv0be3YkB1Xcw8cLK-1004" value="Web serveur&amp;nbsp;&lt;br style=&quot;font-size: 16px;&quot;&gt;(+ Proxy server)" style="whiteSpace=wrap;html=1;fontSize=16;" vertex="1" parent="1">
          <mxGeometry x="370" y="520" width="210" height="70" as="geometry" />
        </mxCell>
        <mxCell id="JGLgv0be3YkB1Xcw8cLK-1005" value="&lt;font style=&quot;font-size: 23px;&quot;&gt;Application server&lt;/font&gt;" style="whiteSpace=wrap;html=1;" vertex="1" parent="1">
          <mxGeometry x="780" y="570" width="200" height="60" as="geometry" />
        </mxCell>
      </root>
    </mxGraphModel>
  </diagram>
</mxfile>
